<?xml version="1.0" encoding="UTF-8" ?>
<!DOCTYPE svg PUBLIC "-//W3C//DTD SVG 1.1//EN" "http://www.w3.org/Graphics/SVG/1.1/DTD/svg11.dtd">
<svg width="931pt" height="1080pt" viewBox="0 0 931 1080" version="1.1" xmlns="http://www.w3.org/2000/svg">
<g id="#000000ff">
</g>
<g id="#777557ff">
<path fill="#777557" opacity="1.00" d=" M 294.17 80.93 C 296.00 76.86 299.87 81.01 295.07 81.71 C 294.84 81.51 294.40 81.13 294.17 80.93 Z" />
</g>
<g id="#efeea5ff">
<path fill="#efeea5" opacity="1.00" d=" M 268.40 89.62 C 274.62 87.43 286.31 84.67 294.17 80.93 C 294.40 81.13 294.84 81.51 295.07 81.71 C 288.03 88.25 279.36 92.57 270.94 96.98 C 268.06 95.08 270.91 91.09 268.40 89.62 Z" />
</g>
<g id="#f8f8eeff">
<path fill="#f8f8ee" opacity="1.00" d=" M 233.19 97.93 C 243.20 94.79 257.00 92.43 268.40 89.62 C 270.91 91.09 268.06 95.08 270.94 96.98 C 260.37 102.47 249.20 107.02 238.02 111.02 C 235.40 108.18 231.68 108.05 228.05 107.78 C 225.87 102.47 236.18 102.99 233.19 97.93 Z" />
</g>
<g id="#8e8a72ff">
<path fill="#8e8a72" opacity="1.00" d=" M 404.80 96.91 C 401.75 94.93 406.05 91.30 405.68 95.97 C 405.46 96.20 405.02 96.68 404.80 96.91 Z" />
</g>
<g id="#f7f7e7ff">
<path fill="#f7f7e7" opacity="1.00" d=" M 404.80 96.91 C 405.02 96.68 405.46 96.20 405.68 95.97 C 412.23 105.74 422.48 111.78 432.71 117.00 C 431.34 119.57 433.80 121.38 433.97 123.82 C 428.45 125.84 422.85 120.79 417.03 121.01 C 411.20 114.23 407.66 105.42 404.80 96.91 Z" />
</g>
<g id="#faf788ff">
<path fill="#faf788" opacity="1.00" d=" M 228.95 98.94 C 229.38 97.21 231.90 98.26 233.19 97.93 C 236.18 102.99 225.87 102.47 228.05 107.78 C 231.68 108.05 235.40 108.18 238.02 111.02 C 234.71 112.96 229.50 114.78 225.37 115.78 C 221.69 114.18 217.93 112.78 214.08 111.68 C 216.92 105.41 227.60 106.49 228.95 98.94 Z" />
</g>
<g id="#f8d15eff">
<path fill="#f8d15e" opacity="1.00" d=" M 223.37 100.23 C 224.34 98.12 227.11 99.23 228.95 98.94 C 227.60 106.49 216.92 105.41 214.08 111.68 C 217.93 112.78 221.69 114.18 225.37 115.78 C 221.76 118.15 217.21 119.55 213.08 121.01 C 207.07 122.47 204.65 116.50 198.88 116.62 C 205.57 109.43 219.07 109.21 223.37 100.23 Z" />
</g>
<g id="#f0aa4bff">
<path fill="#f0aa4b" opacity="1.00" d=" M 207.35 103.27 C 212.41 101.57 217.95 99.87 223.37 100.23 C 219.07 109.21 205.57 109.43 198.88 116.62 C 204.65 116.50 207.07 122.47 213.08 121.01 C 211.29 122.68 208.47 123.25 206.11 123.93 C 202.56 121.15 192.55 130.22 194.39 122.41 C 189.04 122.13 183.39 122.90 178.65 125.54 C 173.22 127.95 167.65 130.04 162.12 132.23 C 161.28 132.12 159.59 131.90 158.75 131.79 C 163.60 126.56 173.69 127.95 175.18 120.18 C 185.81 114.48 197.59 110.45 207.35 103.27 Z" />
</g>
<g id="#da9c47ff">
<path fill="#da9c47" opacity="1.00" d=" M 194.29 106.20 C 198.29 104.56 202.93 103.36 207.35 103.27 C 197.59 110.45 185.81 114.48 175.18 120.18 C 173.69 127.95 163.60 126.56 158.75 131.79 C 159.59 131.90 161.28 132.12 162.12 132.23 C 147.67 137.79 135.76 149.46 129.75 163.70 C 129.90 165.81 127.73 180.85 127.95 168.01 C 126.81 158.96 133.77 152.36 138.95 145.98 C 141.30 140.93 134.49 147.75 133.38 149.82 C 132.57 149.80 131.76 149.81 130.95 149.83 C 145.78 127.77 171.43 117.51 194.29 106.20 Z" />
</g>
<g id="#c49147ff">
<path fill="#c49147" opacity="1.00" d=" M 164.29 113.27 C 173.85 109.65 184.18 107.43 194.29 106.20 C 171.43 117.51 145.78 127.77 130.95 149.83 C 123.47 157.83 118.24 167.91 117.93 179.06 C 118.16 181.00 115.83 179.03 114.93 179.09 C 109.53 166.14 111.92 150.89 122.00 141.01 C 127.06 135.66 133.11 131.48 138.67 126.71 C 140.27 125.49 140.13 124.67 137.94 124.69 C 146.36 120.11 155.90 117.97 164.29 113.27 Z" />
</g>
<g id="#946d3aff">
<path fill="#946d3a" opacity="1.00" d=" M 115.90 138.03 C 127.28 123.87 146.57 116.29 164.29 113.27 C 155.90 117.97 146.36 120.11 137.94 124.69 C 132.04 127.57 126.44 130.97 121.10 134.77 C 119.41 135.93 117.68 137.02 115.90 138.03 Z" />
</g>
<g id="#faef89ff">
<path fill="#faef89" opacity="1.00" d=" M 432.71 117.00 C 433.03 117.22 433.68 117.67 434.00 117.89 C 435.31 123.25 441.19 125.41 443.13 130.06 C 435.68 128.35 428.48 125.84 420.74 125.13 L 419.88 124.93 C 418.15 124.55 417.80 122.35 417.03 121.01 C 422.85 120.79 428.45 125.84 433.97 123.82 C 433.80 121.38 431.34 119.57 432.71 117.00 Z" />
</g>
<g id="#f4b855ff">
<path fill="#f4b855" opacity="1.00" d=" M 434.00 117.89 C 436.92 119.19 440.40 119.87 442.74 122.18 C 451.54 135.03 466.09 143.16 474.52 156.42 C 476.37 158.97 473.22 157.42 471.86 157.13 C 470.80 154.98 469.53 152.84 467.28 151.75 C 459.79 144.31 449.82 131.25 437.84 136.62 C 431.90 133.15 425.90 129.74 420.74 125.13 C 428.48 125.84 435.68 128.35 443.13 130.06 C 441.19 125.41 435.31 123.25 434.00 117.89 Z" />
</g>
<g id="#c59246ff">
<path fill="#c59246" opacity="1.00" d=" M 178.65 125.54 C 183.39 122.90 189.04 122.13 194.39 122.41 C 192.55 130.22 202.56 121.15 206.11 123.93 C 200.88 127.00 194.87 129.77 189.15 132.04 C 186.51 132.05 183.87 132.10 181.24 132.18 C 183.03 128.76 184.18 124.61 178.65 125.54 Z" />
</g>
<g id="#dd9d48ff">
<path fill="#dd9d48" opacity="1.00" d=" M 442.74 122.18 C 443.90 122.59 445.13 123.01 446.05 123.89 C 461.70 136.85 478.41 151.11 484.80 171.14 C 486.51 175.79 484.61 181.84 488.95 185.36 C 487.48 187.86 486.88 192.27 483.28 192.11 C 483.03 189.18 483.00 186.32 482.14 183.51 C 484.33 177.78 479.69 172.60 478.65 167.10 C 478.41 167.37 477.92 167.89 477.67 168.16 C 476.96 165.46 475.08 158.65 474.67 165.19 C 473.50 162.59 472.53 159.90 471.86 157.13 C 473.22 157.42 476.37 158.97 474.52 156.42 C 466.09 143.16 451.54 135.03 442.74 122.18 Z" />
</g>
<g id="#c79047ff">
<path fill="#c79047" opacity="1.00" d=" M 446.05 123.89 C 449.30 124.43 452.53 125.77 455.05 127.94 C 463.91 137.09 476.31 142.13 484.70 151.72 C 483.83 156.52 489.06 160.38 489.76 165.28 C 491.77 171.73 491.94 179.16 488.95 185.36 C 484.61 181.84 486.51 175.79 484.80 171.14 C 478.41 151.11 461.70 136.85 446.05 123.89 Z" />
</g>
<g id="#ecad58ff">
<path fill="#ecad58" opacity="1.00" d=" M 121.10 134.77 C 126.44 130.97 132.04 127.57 137.94 124.69 C 140.13 124.67 140.27 125.49 138.67 126.71 C 133.11 131.48 127.06 135.66 122.00 141.01 C 122.27 138.84 123.69 136.05 121.10 134.77 Z" />
</g>
<g id="#c68d3aff">
<path fill="#c68d3a" opacity="1.00" d=" M 419.88 124.93 L 420.74 125.13 C 425.90 129.74 431.90 133.15 437.84 136.62 C 449.82 131.25 459.79 144.31 467.28 151.75 C 455.80 144.06 442.06 142.78 430.71 134.77 C 428.40 133.39 426.12 131.97 423.81 130.62 C 422.14 129.08 420.28 127.27 419.88 124.93 Z" />
</g>
<g id="#bc8131ff">
<path fill="#bc8131" opacity="1.00" d=" M 162.12 132.23 C 167.65 130.04 173.22 127.95 178.65 125.54 C 184.18 124.61 183.03 128.76 181.24 132.18 C 179.39 133.27 177.54 134.44 175.43 134.98 C 175.61 130.83 171.55 132.17 168.98 132.94 C 147.26 137.35 127.79 158.26 131.90 181.22 C 122.72 173.05 125.49 158.01 133.38 149.82 C 134.49 147.75 141.30 140.93 138.95 145.98 C 133.77 152.36 126.81 158.96 127.95 168.01 C 127.73 180.85 129.90 165.81 129.75 163.70 C 135.76 149.46 147.67 137.79 162.12 132.23 Z" />
</g>
<g id="#98753eff">
<path fill="#98753e" opacity="1.00" d=" M 455.05 127.94 C 474.23 136.00 492.54 149.53 500.66 169.32 C 503.37 175.68 507.13 184.04 503.03 190.09 C 504.40 181.22 500.28 173.01 496.19 165.49 C 493.09 160.33 488.55 156.28 484.70 151.72 C 476.31 142.13 463.91 137.09 455.05 127.94 Z" />
</g>
<g id="#dda65eff">
<path fill="#dda65e" opacity="1.00" d=" M 423.81 130.62 C 426.12 131.97 428.40 133.39 430.71 134.77 C 438.63 144.03 451.24 152.79 450.59 166.22 C 442.86 153.46 432.20 142.89 423.81 130.62 Z" />
</g>
<g id="#9e7232ff">
<path fill="#9e7232" opacity="1.00" d=" M 168.98 132.94 C 171.55 132.17 175.61 130.83 175.43 134.98 C 177.54 134.44 179.39 133.27 181.24 132.18 C 183.87 132.10 186.51 132.05 189.15 132.04 C 182.01 136.51 174.46 140.48 167.80 145.75 C 164.92 147.49 162.29 149.78 160.53 152.68 C 151.66 163.65 148.63 179.05 154.38 192.14 C 156.74 197.83 149.33 191.59 146.96 191.05 C 143.00 189.51 140.24 182.83 135.56 185.92 C 134.21 184.46 133.10 182.80 131.90 181.22 C 127.79 158.26 147.26 137.35 168.98 132.94 Z" />
</g>
<g id="#9f7130ff">
<path fill="#9f7130" opacity="1.00" d=" M 430.71 134.77 C 442.06 142.78 455.80 144.06 467.28 151.75 C 473.55 164.01 477.59 180.01 468.89 191.99 C 468.52 192.28 467.78 192.85 467.42 193.14 C 464.90 185.95 457.05 195.10 451.82 194.63 C 457.17 185.78 455.04 174.86 450.59 166.22 C 451.24 152.79 438.63 144.03 430.71 134.77 Z" />
</g>
<g id="#fcd25dff">
<path fill="#fcd25d" opacity="1.00" d=" M 115.90 138.03 C 117.68 137.02 119.41 135.93 121.10 134.77 C 123.69 136.05 122.27 138.84 122.00 141.01 C 111.92 150.89 109.53 166.14 114.93 179.09 C 114.71 182.20 117.87 183.36 119.57 185.41 C 125.19 191.58 129.68 198.70 134.51 205.47 C 133.36 212.11 140.12 222.00 133.85 226.55 C 131.19 224.69 128.60 222.74 125.94 220.89 C 123.78 218.67 121.41 216.68 119.25 214.47 C 118.07 205.35 109.59 199.04 108.35 189.68 C 107.08 178.67 103.86 167.06 105.93 155.95 C 105.82 152.06 110.06 149.55 109.51 145.70 C 110.53 142.59 113.34 140.02 115.90 138.03 Z" />
</g>
<g id="#f9e063ff">
<path fill="#f9e063" opacity="1.00" d=" M 96.95 171.94 C 99.05 162.56 103.03 152.66 109.51 145.70 C 110.06 149.55 105.82 152.06 105.93 155.95 C 103.86 167.06 107.08 178.67 108.35 189.68 C 109.59 199.04 118.07 205.35 119.25 214.47 C 106.77 203.96 95.80 189.10 96.95 171.94 Z" />
</g>
<g id="#513617ff">
<path fill="#513617" opacity="1.00" d=" M 160.53 152.68 C 162.29 149.78 164.92 147.49 167.80 145.75 C 166.22 148.43 163.81 152.08 160.53 152.68 Z" />
</g>
<g id="#fbc459ff">
<path fill="#fbc459" opacity="1.00" d=" M 130.95 149.83 C 131.76 149.81 132.57 149.80 133.38 149.82 C 125.49 158.01 122.72 173.05 131.90 181.22 C 133.10 182.80 134.21 184.46 135.56 185.92 C 137.88 188.48 140.45 190.79 143.14 192.96 C 144.92 199.95 137.63 197.91 132.89 198.16 C 137.82 204.21 144.51 208.77 149.04 215.10 C 146.23 221.02 149.91 230.85 144.97 234.29 C 141.15 231.88 137.52 229.17 133.85 226.55 C 140.12 222.00 133.36 212.11 134.51 205.47 C 129.68 198.70 125.19 191.58 119.57 185.41 C 117.87 183.36 114.71 182.20 114.93 179.09 C 115.83 179.03 118.16 181.00 117.93 179.06 C 118.24 167.91 123.47 157.83 130.95 149.83 Z" />
</g>
<g id="#c68a33ff">
<path fill="#c68a33" opacity="1.00" d=" M 467.28 151.75 C 469.53 152.84 470.80 154.98 471.86 157.13 C 472.53 159.90 473.50 162.59 474.67 165.19 C 475.08 158.65 476.96 165.46 477.67 168.16 C 479.30 176.88 475.98 186.58 468.89 191.99 C 477.59 180.01 473.55 164.01 467.28 151.75 Z" />
</g>
<g id="#f5b956ff">
<path fill="#f5b956" opacity="1.00" d=" M 489.76 165.28 C 489.06 160.38 483.83 156.52 484.70 151.72 C 488.55 156.28 493.09 160.33 496.19 165.49 C 493.74 165.56 494.18 167.72 494.40 169.45 C 496.31 176.80 491.99 183.65 488.92 189.95 C 487.35 192.25 485.26 196.57 482.24 193.72 C 482.23 190.36 481.29 186.85 482.14 183.51 C 483.00 186.32 483.03 189.18 483.28 192.11 C 486.88 192.27 487.48 187.86 488.95 185.36 C 491.94 179.16 491.77 171.73 489.76 165.28 Z" />
</g>
<g id="#fbcf5eff">
<path fill="#fbcf5e" opacity="1.00" d=" M 494.40 169.45 C 494.18 167.72 493.74 165.56 496.19 165.49 C 500.28 173.01 504.40 181.22 503.03 190.09 C 502.73 192.12 501.64 193.92 500.82 195.76 C 490.57 211.67 474.66 222.57 458.95 232.50 C 456.27 227.19 462.57 222.58 463.29 217.31 C 463.62 210.03 471.26 207.02 474.11 200.95 C 468.94 200.98 460.27 206.64 457.80 200.23 C 461.33 198.34 464.30 195.63 467.42 193.14 C 467.78 192.85 468.52 192.28 468.89 191.99 C 475.98 186.58 479.30 176.88 477.67 168.16 C 477.92 167.89 478.41 167.37 478.65 167.10 C 479.69 172.60 484.33 177.78 482.14 183.51 C 481.29 186.85 482.23 190.36 482.24 193.72 C 485.26 196.57 487.35 192.25 488.92 189.95 C 491.99 183.65 496.31 176.80 494.40 169.45 Z" />
</g>
<g id="#4c4c4cff">
<path fill="#4c4c4c" opacity="1.00" d=" M 249.11 177.01 C 262.95 168.01 282.14 166.53 298.33 170.57 C 311.47 173.17 322.68 180.57 334.17 186.97 C 333.43 183.56 330.32 181.36 328.89 178.27 C 345.25 174.89 363.92 173.07 378.81 182.18 C 385.88 186.10 384.73 195.82 390.97 200.14 C 390.84 197.04 388.37 186.39 391.95 192.07 C 393.27 197.28 395.67 202.11 397.89 206.98 C 387.51 206.40 373.38 208.15 368.84 219.06 C 379.42 214.90 390.91 209.93 402.39 214.53 C 415.48 217.79 412.56 235.57 407.81 245.05 C 402.29 244.02 397.40 240.79 391.83 239.80 C 397.00 238.00 412.27 236.54 406.42 227.98 C 400.75 216.39 385.07 222.87 376.06 227.23 C 371.09 226.40 365.77 224.41 363.46 219.56 C 361.36 218.62 365.17 210.77 361.07 212.07 C 358.72 212.94 357.96 216.16 356.30 218.02 C 355.58 212.63 353.34 207.25 349.18 203.62 C 348.88 203.35 348.28 202.79 347.97 202.51 C 344.11 197.73 346.69 207.57 345.89 210.10 C 344.54 209.47 343.28 208.69 341.99 207.95 C 337.94 204.03 334.28 198.86 328.85 196.87 C 330.51 201.05 334.04 204.12 336.30 207.97 C 335.94 209.44 335.35 210.85 334.49 212.11 L 333.97 211.34 C 332.41 208.62 330.42 206.21 327.18 205.73 C 329.19 211.68 332.10 219.87 326.71 224.72 C 318.01 228.31 308.76 222.44 299.93 221.98 C 292.99 218.78 285.75 216.20 278.25 214.69 C 272.36 213.06 266.30 212.48 260.27 211.73 C 256.31 208.66 258.90 203.67 260.08 199.89 C 277.80 197.17 295.94 201.01 312.32 207.85 C 298.44 193.25 275.46 191.80 256.49 193.88 C 253.07 192.79 248.67 195.53 246.09 192.77 C 245.84 187.37 248.00 182.22 249.11 177.01 Z" />
<path fill="#4c4c4c" opacity="1.00" d=" M 253.96 225.99 C 255.49 225.15 258.05 224.01 256.90 226.93 C 254.96 232.52 254.35 238.38 256.20 244.16 C 258.89 240.94 261.29 230.12 267.20 234.79 C 278.63 243.28 293.39 237.38 306.34 237.08 C 296.21 245.02 281.77 243.61 269.74 242.10 C 278.37 249.50 290.79 248.45 301.19 246.61 C 292.13 251.73 281.48 255.77 276.75 265.86 C 269.55 273.34 280.92 282.46 272.15 289.13 C 265.54 296.31 254.51 303.40 244.38 299.60 C 234.03 293.27 232.38 279.58 230.26 268.70 C 226.89 250.68 240.37 235.56 253.96 225.99 Z" />
<path fill="#4c4c4c" opacity="1.00" d=" M 171.22 415.35 C 173.61 420.86 173.59 432.88 175.62 440.34 C 182.06 469.67 195.88 496.84 212.10 521.92 C 229.76 549.60 248.78 578.15 252.47 611.66 C 253.71 614.40 251.87 617.47 248.99 618.00 C 227.23 623.70 202.41 622.11 183.05 609.92 C 167.11 599.40 161.70 579.00 163.04 560.87 C 175.67 576.53 194.08 588.05 214.02 590.99 C 206.72 545.46 177.94 506.65 169.61 461.32 C 166.96 446.28 165.04 429.49 171.22 415.35 Z" />
<path fill="#4c4c4c" opacity="1.00" d=" M 94.12 605.09 C 100.34 602.47 108.72 602.28 113.76 607.15 C 116.44 612.00 119.10 617.19 118.08 622.99 C 116.86 633.02 133.58 632.85 134.17 643.01 C 129.44 640.17 124.44 637.69 118.88 637.05 C 125.47 649.94 129.68 664.44 127.16 679.03 C 124.04 696.38 132.33 712.26 142.29 725.67 C 146.31 734.07 137.69 741.09 130.92 744.00 C 122.43 745.20 119.44 735.47 118.06 728.97 C 116.01 704.62 117.40 678.26 104.64 656.34 C 98.40 649.23 90.00 643.33 87.15 633.87 C 82.82 624.00 86.74 612.38 94.12 605.09 Z" />
</g>
<g id="#91672eff">
<path fill="#91672e" opacity="1.00" d=" M 96.98 199.99 C 93.94 191.48 94.09 179.76 96.95 171.94 C 95.80 189.10 106.77 203.96 119.25 214.47 C 121.41 216.68 123.78 218.67 125.94 220.89 C 129.70 228.12 142.47 231.81 141.30 240.95 C 134.15 238.14 125.99 234.94 120.40 230.35 C 112.09 221.49 102.75 211.45 96.98 199.99 Z" />
</g>
<g id="#9b6f33ff">
<path fill="#9b6f33" opacity="1.00" d=" M 155.29 188.76 C 154.40 184.37 152.14 176.35 154.96 174.05 C 171.31 193.32 200.33 193.60 223.81 194.11 C 225.68 195.46 224.81 198.04 225.04 200.00 C 225.03 201.76 225.00 205.29 224.99 207.05 C 211.61 200.53 196.53 197.86 182.05 194.85 C 175.05 192.07 168.00 189.36 160.86 186.98 C 166.96 196.51 178.89 200.12 189.26 203.80 C 181.81 204.33 175.29 199.38 167.79 200.15 C 162.39 197.59 153.87 197.35 155.29 188.76 Z" />
</g>
<g id="#9c7136ff">
<path fill="#9c7136" opacity="1.00" d=" M 403.32 192.13 C 419.53 189.13 434.47 181.17 448.88 174.00 C 451.09 180.93 452.16 188.73 448.86 195.47 C 445.79 196.88 442.52 197.75 439.22 198.41 C 437.68 198.04 436.17 197.63 434.66 197.19 C 438.70 194.28 447.15 194.14 447.06 187.96 C 441.54 188.31 436.34 190.46 430.94 191.48 C 420.69 193.47 408.57 193.86 400.52 201.20 C 398.87 197.52 394.94 190.56 403.32 192.13 Z" />
</g>
<g id="#333332ff">
<path fill="#333332" opacity="1.00" d=" M 236.82 197.89 C 238.01 189.39 238.51 178.97 249.11 177.01 C 248.00 182.22 245.84 187.37 246.09 192.77 C 248.67 195.53 253.07 192.79 256.49 193.88 C 238.06 193.34 233.01 214.19 238.59 228.40 C 238.74 218.91 240.73 209.05 246.34 201.25 C 250.90 200.60 255.49 200.24 260.08 199.89 C 258.90 203.67 256.31 208.66 260.27 211.73 C 266.30 212.48 272.36 213.06 278.25 214.69 C 270.81 214.69 263.30 214.73 256.15 217.11 C 254.44 221.38 261.69 218.19 264.12 219.14 C 262.39 222.66 260.15 226.07 259.88 230.10 C 262.55 228.13 264.99 223.98 268.15 228.74 C 281.85 238.58 299.81 232.41 314.98 235.23 C 311.76 239.71 307.20 245.78 301.19 246.61 C 290.79 248.45 278.37 249.50 269.74 242.10 C 281.77 243.61 296.21 245.02 306.34 237.08 C 293.39 237.38 278.63 243.28 267.20 234.79 C 261.29 230.12 258.89 240.94 256.20 244.16 C 254.35 238.38 254.96 232.52 256.90 226.93 C 258.05 224.01 255.49 225.15 253.96 225.99 C 240.37 235.56 226.89 250.68 230.26 268.70 C 232.38 279.58 234.03 293.27 244.38 299.60 C 254.51 303.40 265.54 296.31 272.15 289.13 C 280.92 282.46 269.55 273.34 276.75 265.86 C 276.75 273.06 281.09 262.83 284.76 262.71 C 282.08 270.12 280.52 278.97 283.76 286.19 C 283.97 273.12 289.70 258.91 301.90 252.85 C 301.58 260.03 298.90 268.10 303.74 274.33 C 303.36 263.17 305.00 249.82 314.93 242.93 C 327.67 236.24 342.72 246.59 346.84 259.11 C 347.82 260.86 347.36 264.18 350.04 264.15 C 350.45 256.44 347.72 249.01 342.84 243.09 C 356.16 239.75 368.44 245.68 376.08 256.19 C 375.90 250.90 371.44 247.23 368.96 242.94 C 380.37 242.85 393.59 242.86 403.21 249.97 C 400.42 253.87 395.08 256.83 394.93 262.12 C 401.91 257.46 408.75 249.97 418.01 249.95 C 418.36 257.60 415.53 265.01 411.19 271.17 C 409.12 278.58 410.36 286.47 410.02 294.06 C 407.86 292.37 405.71 290.57 403.04 289.77 C 407.43 297.26 412.75 305.03 412.99 314.02 C 412.95 316.70 414.18 321.56 407.99 318.03 C 400.54 318.25 393.15 316.34 385.72 317.19 C 386.96 319.36 395.63 318.01 393.63 321.63 C 382.12 329.54 368.72 334.26 354.75 334.78 C 359.21 329.79 365.60 325.27 366.10 317.91 C 357.60 325.69 348.08 336.00 335.12 332.88 C 327.20 330.18 319.77 325.97 312.91 321.20 C 318.74 319.93 324.85 319.59 330.41 317.28 C 320.60 316.67 310.73 317.54 300.97 316.23 C 293.51 319.09 296.07 311.79 296.13 308.13 C 298.61 298.74 306.76 292.03 312.12 284.87 C 301.46 289.07 292.67 299.50 290.64 310.91 C 282.94 309.69 273.75 307.06 266.77 309.79 C 272.35 309.67 277.84 310.79 283.17 312.35 C 277.15 315.95 270.81 319.19 264.19 321.58 C 251.35 323.44 236.34 321.30 228.82 309.23 C 219.93 297.75 219.27 282.62 218.27 268.77 C 218.15 268.03 217.92 266.55 217.80 265.80 C 212.33 273.03 206.71 280.29 199.24 285.60 C 190.55 288.50 181.07 290.75 171.98 288.03 C 158.73 283.96 149.34 272.00 146.01 258.89 C 164.54 262.17 183.17 264.92 201.42 269.57 C 205.32 271.80 212.31 268.48 211.47 263.85 C 215.42 258.59 218.64 250.66 213.79 245.06 C 205.36 246.05 198.17 253.56 188.89 251.97 C 199.94 249.63 208.19 232.92 220.09 242.04 C 220.03 239.88 217.13 237.72 218.79 235.79 C 230.12 222.30 231.92 203.67 228.03 187.00 C 222.80 178.12 239.85 180.81 235.00 188.02 C 235.78 190.87 234.19 196.93 236.82 197.89 M 322.33 250.25 C 314.67 253.12 313.66 263.97 318.18 269.94 C 323.55 269.81 319.49 261.88 323.19 259.06 C 329.55 257.18 331.83 264.98 337.00 266.08 C 338.29 257.97 331.50 247.32 322.33 250.25 M 410.29 254.24 C 406.53 257.65 402.45 261.88 401.99 267.13 C 405.07 263.59 408.49 260.35 411.98 263.98 C 416.34 262.58 416.81 251.48 410.29 254.24 M 350.41 295.56 C 335.35 297.97 317.69 298.69 305.87 309.06 C 318.41 305.63 331.17 302.06 344.30 301.29 C 365.88 301.17 390.85 297.73 409.15 312.02 C 408.15 307.38 404.06 304.14 400.31 301.70 C 384.91 294.11 367.11 294.28 350.41 295.56 Z" />
</g>
<g id="#86501aff">
<path fill="#86501a" opacity="1.00" d=" M 135.56 185.92 C 140.24 182.83 143.00 189.51 146.96 191.05 C 149.33 191.59 156.74 197.83 154.38 192.14 C 154.66 191.01 154.97 189.88 155.29 188.76 C 153.87 197.35 162.39 197.59 167.79 200.15 C 184.91 206.53 201.62 214.03 218.10 221.90 C 219.63 222.07 220.81 220.74 222.12 220.13 C 220.25 226.14 216.20 235.96 208.30 233.89 C 204.68 230.10 201.02 226.26 196.48 223.57 C 186.28 216.60 175.25 210.92 164.04 205.77 C 158.21 202.67 152.46 199.42 146.78 196.06 C 145.58 195.01 144.38 193.96 143.14 192.96 C 140.45 190.79 137.88 188.48 135.56 185.92 Z" />
</g>
<g id="#b97e34ff">
<path fill="#b97e34" opacity="1.00" d=" M 160.86 186.98 C 168.00 189.36 175.05 192.07 182.05 194.85 C 191.32 198.73 200.27 203.31 209.23 207.87 C 202.50 206.89 195.94 205.04 189.26 203.80 C 178.89 200.12 166.96 196.51 160.86 186.98 Z" />
</g>
<g id="#b97f34ff">
<path fill="#b97f34" opacity="1.00" d=" M 430.94 191.48 C 436.34 190.46 441.54 188.31 447.06 187.96 C 447.15 194.14 438.70 194.28 434.66 197.19 C 431.01 197.30 427.36 197.66 423.73 197.89 C 425.17 194.83 432.23 194.59 430.94 191.48 Z" />
</g>
<g id="#8a561eff">
<path fill="#8a561e" opacity="1.00" d=" M 451.82 194.63 C 457.05 195.10 464.90 185.95 467.42 193.14 C 464.30 195.63 461.33 198.34 457.80 200.23 C 451.97 203.12 446.08 205.88 439.91 207.96 C 437.24 208.90 434.58 209.84 431.92 210.82 C 426.73 213.17 417.40 213.35 416.71 220.17 C 415.88 215.51 412.19 212.61 408.45 210.14 C 418.70 206.22 428.67 201.51 439.22 198.41 C 442.52 197.75 445.79 196.88 448.86 195.47 C 449.83 195.15 450.79 194.74 451.82 194.63 Z" />
</g>
<g id="#070504ff">
<path fill="#070504" opacity="1.00" d=" M 391.95 192.07 C 395.68 194.48 400.50 188.53 403.32 192.13 C 394.94 190.56 398.87 197.52 400.52 201.20 L 400.96 202.06 C 402.66 205.36 405.18 208.31 408.45 210.14 C 412.19 212.61 415.88 215.51 416.71 220.17 C 415.97 228.82 420.61 235.53 428.79 238.35 C 430.91 239.51 433.12 240.51 435.44 241.21 C 442.25 245.58 448.62 238.62 454.26 235.19 C 455.85 234.35 457.41 233.44 458.95 232.50 C 474.66 222.57 490.57 211.67 500.82 195.76 C 506.06 194.58 502.98 200.80 502.58 203.57 C 493.43 211.42 485.59 221.37 473.85 225.83 C 472.07 232.62 461.17 230.53 461.51 237.89 C 457.48 240.31 449.16 237.08 447.85 242.91 C 446.83 246.77 440.57 243.96 439.67 248.01 C 431.30 246.47 424.03 241.92 417.14 237.17 C 416.27 240.43 411.65 247.68 419.87 245.17 C 425.26 247.10 423.21 254.44 424.24 258.99 C 439.22 259.96 453.33 253.43 468.22 253.10 C 453.78 260.37 437.35 266.51 421.00 264.11 C 419.36 270.16 426.25 272.01 430.11 274.61 C 428.26 274.99 427.15 276.51 426.50 278.18 C 423.00 276.44 419.83 274.00 416.13 272.75 C 416.01 276.75 415.97 280.76 416.03 284.77 C 414.03 295.76 418.47 306.12 418.98 316.83 C 417.00 325.78 407.36 324.09 400.38 323.42 C 392.32 328.23 383.89 332.39 375.42 336.43 C 368.91 351.47 375.92 367.67 377.18 382.94 C 379.53 401.69 376.80 421.74 367.17 438.22 C 367.02 436.80 366.92 435.37 366.85 433.95 C 376.74 411.40 373.68 385.62 368.73 362.16 C 367.33 354.14 367.88 345.94 369.75 338.06 C 361.64 339.35 353.47 338.47 345.32 338.36 C 329.84 341.86 317.39 330.31 305.00 323.06 C 300.10 320.48 291.76 323.36 290.47 316.25 C 278.05 319.05 267.24 327.71 254.58 330.54 C 242.76 334.70 228.46 331.25 220.93 321.04 C 211.20 307.31 211.87 289.55 214.99 273.77 C 209.95 279.60 206.45 286.80 199.34 290.69 C 186.82 294.20 188.72 309.31 184.35 319.29 C 183.75 310.75 184.21 301.72 187.05 294.96 C 183.00 294.11 178.93 299.00 175.40 295.57 C 173.44 293.30 170.89 294.32 168.67 295.56 C 159.11 294.82 145.34 290.08 143.32 279.73 C 158.24 293.33 182.22 298.21 199.24 285.60 C 206.71 280.29 212.33 273.03 217.80 265.80 C 217.92 266.55 218.15 268.03 218.27 268.77 C 217.95 272.46 217.26 276.08 216.80 279.75 C 215.76 284.85 215.90 290.10 216.71 295.23 C 217.89 306.19 221.77 318.31 231.77 324.27 C 242.20 330.12 253.95 325.43 264.19 321.58 C 270.81 319.19 277.15 315.95 283.17 312.35 C 277.84 310.79 272.35 309.67 266.77 309.79 C 273.75 307.06 282.94 309.69 290.64 310.91 C 292.67 299.50 301.46 289.07 312.12 284.87 C 306.76 292.03 298.61 298.74 296.13 308.13 C 296.07 311.79 293.51 319.09 300.97 316.23 C 310.73 317.54 320.60 316.67 330.41 317.28 C 324.85 319.59 318.74 319.93 312.91 321.20 C 319.77 325.97 327.20 330.18 335.12 332.88 C 348.08 336.00 357.60 325.69 366.10 317.91 C 365.60 325.27 359.21 329.79 354.75 334.78 C 368.72 334.26 382.12 329.54 393.63 321.63 C 395.63 318.01 386.96 319.36 385.72 317.19 C 393.15 316.34 400.54 318.25 407.99 318.03 C 414.18 321.56 412.95 316.70 412.99 314.02 C 412.75 305.03 407.43 297.26 403.04 289.77 C 405.71 290.57 407.86 292.37 410.02 294.06 C 410.36 286.47 409.12 278.58 411.19 271.17 C 415.53 265.01 418.36 257.60 418.01 249.95 C 408.75 249.97 401.91 257.46 394.93 262.12 C 395.08 256.83 400.42 253.87 403.21 249.97 C 393.59 242.86 380.37 242.85 368.96 242.94 C 371.44 247.23 375.90 250.90 376.08 256.19 C 368.44 245.68 356.16 239.75 342.84 243.09 C 347.72 249.01 350.45 256.44 350.04 264.15 C 347.36 264.18 347.82 260.86 346.84 259.11 C 342.72 246.59 327.67 236.24 314.93 242.93 C 305.00 249.82 303.36 263.17 303.74 274.33 C 298.90 268.10 301.58 260.03 301.90 252.85 C 289.70 258.91 283.97 273.12 283.76 286.19 C 280.52 278.97 282.08 270.12 284.76 262.71 C 281.09 262.83 276.75 273.06 276.75 265.86 C 281.48 255.77 292.13 251.73 301.19 246.61 C 307.20 245.78 311.76 239.71 314.98 235.23 C 299.81 232.41 281.85 238.58 268.15 228.74 C 264.99 223.98 262.55 228.13 259.88 230.10 C 260.15 226.07 262.39 222.66 264.12 219.14 C 261.69 218.19 254.44 221.38 256.15 217.11 C 263.30 214.73 270.81 214.69 278.25 214.69 C 285.75 216.20 292.99 218.78 299.93 221.98 C 309.31 226.55 319.98 235.71 330.68 229.69 C 336.21 224.23 332.88 216.40 330.96 210.06 C 331.97 210.46 332.97 210.89 333.97 211.34 L 334.49 212.11 C 339.70 219.03 339.90 230.16 331.62 234.65 C 327.89 236.62 332.93 238.34 334.99 238.69 C 343.62 237.23 352.57 235.91 361.10 238.67 C 371.33 237.97 381.77 237.17 391.83 239.80 C 397.40 240.79 402.29 244.02 407.81 245.05 C 412.56 235.57 415.48 217.79 402.39 214.53 C 390.91 209.93 379.42 214.90 368.84 219.06 C 373.38 208.15 387.51 206.40 397.89 206.98 C 395.67 202.11 393.27 197.28 391.95 192.07 M 275.08 220.83 C 269.74 220.33 267.16 225.63 273.71 225.97 C 276.50 229.09 282.22 228.25 285.98 229.06 C 286.74 231.90 293.47 228.20 295.02 230.03 C 305.25 232.02 297.72 226.09 294.11 225.97 C 289.59 223.76 284.86 221.45 279.81 220.95 C 279.63 219.15 275.45 219.16 275.08 220.83 Z" />
</g>
<g id="#e39740ff">
<path fill="#e39740" opacity="1.00" d=" M 400.52 201.20 C 408.57 193.86 420.69 193.47 430.94 191.48 C 432.23 194.59 425.17 194.83 423.73 197.89 C 415.96 198.33 408.60 200.92 400.96 202.06 L 400.52 201.20 Z" />
</g>
<g id="#f9b152ff">
<path fill="#f9b152" opacity="1.00" d=" M 143.14 192.96 C 144.38 193.96 145.58 195.01 146.78 196.06 C 149.98 202.55 159.43 204.23 164.32 209.71 C 160.53 209.86 156.66 210.01 153.03 211.23 C 154.23 216.25 161.66 217.48 163.03 222.93 C 165.19 228.56 165.52 241.74 156.79 241.34 C 152.82 239.04 148.91 236.64 144.97 234.29 C 149.91 230.85 146.23 221.02 149.04 215.10 C 144.51 208.77 137.82 204.21 132.89 198.16 C 137.63 197.91 144.92 199.95 143.14 192.96 Z" />
</g>
<g id="#050505ff">
<path fill="#050505" opacity="1.00" d=" M 256.49 193.88 C 275.46 191.80 298.44 193.25 312.32 207.85 C 295.94 201.01 277.80 197.17 260.08 199.89 C 255.49 200.24 250.90 200.60 246.34 201.25 C 240.73 209.05 238.74 218.91 238.59 228.40 C 233.01 214.19 238.06 193.34 256.49 193.88 Z" />
<path fill="#050505" opacity="1.00" d=" M 350.27 226.15 C 348.78 218.39 345.88 210.42 347.97 202.51 C 348.28 202.79 348.88 203.35 349.18 203.62 C 352.11 210.62 355.67 219.33 350.27 226.15 Z" />
</g>
<g id="#de933eff">
<path fill="#de933e" opacity="1.00" d=" M 182.05 194.85 C 196.53 197.86 211.61 200.53 224.99 207.05 C 225.00 208.40 225.01 209.76 225.02 211.12 L 224.98 212.22 C 219.57 211.43 214.49 209.24 209.23 207.87 C 200.27 203.31 191.32 198.73 182.05 194.85 Z" />
</g>
<g id="#e2a14dff">
<path fill="#e2a14d" opacity="1.00" d=" M 146.78 196.06 C 152.46 199.42 158.21 202.67 164.04 205.77 C 167.91 212.12 177.02 212.44 181.13 218.27 C 177.05 219.34 173.19 221.58 168.77 220.35 C 177.40 227.22 178.77 238.94 172.97 248.06 C 166.88 248.33 161.80 244.29 156.79 241.34 C 165.52 241.74 165.19 228.56 163.03 222.93 C 161.66 217.48 154.23 216.25 153.03 211.23 C 156.66 210.01 160.53 209.86 164.32 209.71 C 159.43 204.23 149.98 202.55 146.78 196.06 Z" />
</g>
<g id="#090909ff">
<path fill="#090909" opacity="1.00" d=" M 328.85 196.87 C 334.28 198.86 337.94 204.03 341.99 207.95 C 345.86 214.93 349.45 224.15 344.38 231.36 C 344.40 222.87 340.42 215.13 336.30 207.97 C 334.04 204.12 330.51 201.05 328.85 196.87 Z" />
</g>
<g id="#a96623ff">
<path fill="#a96623" opacity="1.00" d=" M 423.73 197.89 C 427.36 197.66 431.01 197.30 434.66 197.19 C 436.17 197.63 437.68 198.04 439.22 198.41 C 428.67 201.51 418.70 206.22 408.45 210.14 C 405.18 208.31 402.66 205.36 400.96 202.06 C 408.60 200.92 415.96 198.33 423.73 197.89 Z" />
</g>
<g id="#a57f4eff">
<path fill="#a57f4e" opacity="1.00" d=" M 96.98 199.99 C 102.75 211.45 112.09 221.49 120.40 230.35 C 109.26 223.95 99.40 212.87 96.98 199.99 Z" />
</g>
<g id="#a16122ff">
<path fill="#a16122" opacity="1.00" d=" M 167.79 200.15 C 175.29 199.38 181.81 204.33 189.26 203.80 C 195.94 205.04 202.50 206.89 209.23 207.87 C 214.49 209.24 219.57 211.43 224.98 212.22 C 224.12 214.84 223.77 217.95 222.12 220.13 C 220.81 220.74 219.63 222.07 218.10 221.90 C 201.62 214.03 184.91 206.53 167.79 200.15 Z" />
</g>
<g id="#4d330dff">
<path fill="#4d330d" opacity="1.00" d=" M 225.04 200.00 C 226.27 200.42 227.63 210.40 225.02 211.12 C 225.01 209.76 225.00 208.40 224.99 207.05 C 225.00 205.29 225.03 201.76 225.04 200.00 Z" />
</g>
<g id="#f9b454ff">
<path fill="#f9b454" opacity="1.00" d=" M 439.91 207.96 C 446.08 205.88 451.97 203.12 457.80 200.23 C 460.27 206.64 468.94 200.98 474.11 200.95 C 471.26 207.02 463.62 210.03 463.29 217.31 C 462.57 222.58 456.27 227.19 458.95 232.50 C 457.41 233.44 455.85 234.35 454.26 235.19 C 449.81 236.29 445.44 237.68 441.08 239.04 C 439.79 233.24 437.48 225.33 442.54 220.52 C 444.13 218.29 447.92 217.23 448.03 214.18 C 445.57 212.12 437.88 212.41 439.91 207.96 Z" />
</g>
<g id="#313232ff">
<path fill="#313232" opacity="1.00" d=" M 345.89 210.10 C 346.69 207.57 344.11 197.73 347.97 202.51 C 345.88 210.42 348.78 218.39 350.27 226.15 C 355.67 219.33 352.11 210.62 349.18 203.62 C 353.34 207.25 355.58 212.63 356.30 218.02 C 357.96 216.16 358.72 212.94 361.07 212.07 C 365.17 210.77 361.36 218.62 363.46 219.56 C 365.77 224.41 371.09 226.40 376.06 227.23 C 372.06 228.88 367.54 229.44 363.27 228.82 C 358.95 226.01 362.01 219.84 360.75 215.75 C 356.89 221.77 355.31 232.96 365.17 233.75 C 378.60 236.09 397.75 242.02 406.42 227.98 C 412.27 236.54 397.00 238.00 391.83 239.80 C 381.77 237.17 371.33 237.97 361.10 238.67 C 352.57 235.91 343.62 237.23 334.99 238.69 C 332.93 238.34 327.89 236.62 331.62 234.65 C 339.90 230.16 339.70 219.03 334.49 212.11 C 335.35 210.85 335.94 209.44 336.30 207.97 C 340.42 215.13 344.40 222.87 344.38 231.36 C 349.45 224.15 345.86 214.93 341.99 207.95 C 343.28 208.69 344.54 209.47 345.89 210.10 Z" />
</g>
<g id="#cc954aff">
<path fill="#cc954a" opacity="1.00" d=" M 164.04 205.77 C 175.25 210.92 186.28 216.60 196.48 223.57 C 199.28 230.71 183.99 228.84 188.46 236.79 C 190.76 242.13 185.25 244.18 181.85 246.93 C 180.28 248.42 177.96 247.93 176.00 248.08 C 175.24 248.08 173.73 248.06 172.97 248.06 C 178.77 238.94 177.40 227.22 168.77 220.35 C 173.19 221.58 177.05 219.34 181.13 218.27 C 177.02 212.44 167.91 212.12 164.04 205.77 Z" />
</g>
<g id="#333333ff">
<path fill="#333333" opacity="1.00" d=" M 327.18 205.73 C 330.42 206.21 332.41 208.62 333.97 211.34 C 332.97 210.89 331.97 210.46 330.96 210.06 C 332.88 216.40 336.21 224.23 330.68 229.69 C 319.98 235.71 309.31 226.55 299.93 221.98 C 308.76 222.44 318.01 228.31 326.71 224.72 C 332.10 219.87 329.19 211.68 327.18 205.73 Z" />
<path fill="#333333" opacity="1.00" d=" M 416.13 272.75 C 419.83 274.00 423.00 276.44 426.50 278.18 C 433.51 282.40 443.34 281.74 446.08 291.06 C 435.61 296.45 425.20 289.50 416.03 284.77 C 415.97 280.76 416.01 276.75 416.13 272.75 Z" />
<path fill="#333333" opacity="1.00" d=" M 460.10 387.72 C 469.59 417.69 469.28 452.10 459.45 482.37 C 447.49 519.00 412.94 545.34 375.72 551.98 C 376.02 551.73 376.64 551.22 376.94 550.96 C 407.41 536.66 431.39 510.10 446.15 480.13 C 459.86 451.52 463.09 419.03 460.10 387.72 Z" />
<path fill="#333333" opacity="1.00" d=" M 163.24 516.80 C 146.91 475.59 146.78 424.48 175.11 388.51 C 177.45 398.06 178.96 407.87 183.02 416.94 C 202.75 472.41 251.99 511.52 270.37 567.64 C 274.60 578.78 275.64 593.02 278.02 602.87 C 278.22 577.47 270.93 552.40 258.59 530.32 C 264.45 531.46 272.89 527.32 277.77 531.27 C 281.21 546.43 280.50 562.67 283.28 577.74 C 292.24 579.53 301.67 579.75 310.78 579.90 C 313.04 567.85 312.17 554.45 313.85 541.85 C 313.92 541.46 314.06 540.67 314.13 540.27 C 315.77 539.14 317.29 537.84 319.00 536.81 C 316.98 569.48 322.91 604.27 342.94 631.02 C 353.88 645.30 368.57 656.17 384.14 664.94 C 406.58 677.27 433.12 685.26 458.71 679.70 C 464.02 663.07 460.74 644.60 452.03 629.74 C 465.79 639.81 469.32 658.54 474.07 674.01 C 491.38 664.79 503.52 646.11 504.61 626.45 C 504.27 598.42 493.91 571.92 484.98 545.84 C 501.17 565.30 513.53 587.84 526.67 609.33 C 528.04 612.49 531.22 610.16 532.86 608.80 C 541.65 593.52 539.85 574.86 540.00 557.96 C 548.26 592.13 544.88 633.81 524.13 664.27 C 526.77 633.64 513.08 604.35 499.93 577.88 C 506.50 601.76 519.34 624.55 519.06 649.99 C 521.07 671.08 508.06 688.80 498.07 706.06 C 493.70 713.49 488.57 721.34 487.98 730.16 C 493.11 721.82 497.17 712.28 504.00 704.89 C 501.30 726.20 499.38 748.11 504.83 769.17 C 500.64 767.90 499.13 762.55 494.87 760.95 C 503.65 776.42 517.95 790.96 518.17 809.97 C 520.09 824.47 512.92 838.08 510.94 852.12 C 512.20 850.63 513.38 849.06 514.83 847.75 C 515.37 864.23 515.89 882.55 527.34 895.68 C 534.82 904.00 538.47 915.58 533.04 926.08 C 531.45 932.10 539.94 932.17 541.56 934.84 C 539.97 937.77 538.17 940.58 535.96 943.10 C 532.96 944.81 529.96 946.51 526.90 948.10 C 524.29 949.05 521.66 949.96 519.10 951.04 C 513.39 951.59 507.66 951.97 501.93 952.13 C 499.64 951.82 497.38 951.40 495.10 951.08 C 492.21 949.80 488.67 949.04 486.86 946.23 C 491.39 942.53 496.26 939.26 500.93 935.75 C 501.38 930.11 494.37 927.45 492.65 922.33 C 489.92 909.89 495.15 896.22 489.63 884.30 C 484.26 870.90 478.18 857.73 470.72 845.38 C 471.84 845.84 472.75 845.77 473.42 845.16 C 470.03 828.66 447.60 824.65 439.72 810.28 C 439.79 805.41 439.93 800.59 439.80 795.76 C 439.80 794.13 439.80 790.86 439.80 789.23 C 439.84 784.04 440.21 778.91 439.87 773.76 C 439.27 774.87 438.74 776.02 438.23 777.19 C 437.34 768.54 435.22 784.39 434.13 785.06 C 433.92 777.50 429.81 770.80 426.96 764.02 C 417.43 745.11 405.11 727.84 393.93 709.94 C 406.25 712.78 417.43 719.81 430.23 721.02 C 423.90 717.63 416.56 716.64 410.17 713.33 C 410.28 713.01 410.52 712.37 410.63 712.05 C 387.07 698.00 366.50 679.13 348.40 658.61 C 333.67 640.64 319.51 621.42 311.78 599.28 C 311.48 599.47 310.90 599.85 310.60 600.04 C 309.60 597.82 307.38 591.61 309.12 601.92 C 314.84 637.08 334.79 669.43 363.23 690.77 C 376.11 704.38 388.35 718.82 398.08 734.90 C 369.04 733.39 338.82 727.60 314.75 710.29 C 284.37 688.53 278.17 647.04 285.98 612.74 C 271.69 646.01 279.76 689.27 308.97 712.05 C 317.42 719.81 327.93 724.47 338.21 729.21 C 336.49 730.27 334.62 731.02 332.77 731.79 C 299.28 742.93 264.15 721.90 244.34 695.65 C 231.29 676.56 224.23 653.99 221.89 631.13 C 219.50 642.23 222.58 657.62 226.37 669.76 C 235.68 698.26 256.86 722.89 284.87 734.20 C 286.91 736.10 292.35 734.68 291.94 737.97 C 272.01 763.00 235.44 773.16 205.28 761.66 C 195.24 759.85 190.62 749.81 182.68 744.42 C 174.17 746.90 169.83 736.18 163.13 732.93 C 157.21 730.21 160.40 722.93 157.80 718.16 C 155.02 710.92 147.74 707.26 140.75 705.23 C 139.92 701.16 135.44 695.27 140.62 692.55 C 144.36 690.14 145.73 685.83 147.05 681.84 C 143.82 682.84 143.46 687.55 139.94 688.14 C 141.31 681.02 143.97 674.03 142.84 666.63 C 141.23 671.50 140.92 676.84 138.32 681.37 C 137.27 672.45 139.23 661.11 132.99 653.76 C 139.44 672.04 126.57 692.26 137.81 709.16 C 143.74 711.35 150.22 713.60 152.92 720.08 C 156.19 728.58 150.96 737.03 147.14 744.36 C 149.98 743.48 151.01 740.21 153.59 739.11 C 155.05 743.12 157.16 746.84 160.01 750.03 C 162.00 761.27 160.55 772.61 155.44 782.82 C 152.98 785.87 150.49 788.89 148.11 792.02 C 143.66 797.19 136.75 799.89 129.99 798.78 C 128.86 798.02 127.67 797.37 126.40 796.91 C 120.43 792.85 110.21 791.77 108.03 784.07 C 107.72 779.93 107.16 775.80 106.40 771.73 C 106.18 768.50 105.99 765.41 105.75 762.23 C 106.00 753.40 106.41 744.53 105.25 735.76 C 104.90 723.19 105.19 710.59 103.80 698.08 C 99.64 672.00 74.37 654.02 73.96 627.00 C 73.00 620.92 78.73 616.96 79.50 611.83 C 82.61 608.43 88.95 605.48 94.12 605.09 C 86.74 612.38 82.82 624.00 87.15 633.87 C 90.00 643.33 98.40 649.23 104.64 656.34 C 117.40 678.26 116.01 704.62 118.06 728.97 C 119.44 735.47 122.43 745.20 130.92 744.00 C 137.69 741.09 146.31 734.07 142.29 725.67 C 132.33 712.26 124.04 696.38 127.16 679.03 C 129.68 664.44 125.47 649.94 118.88 637.05 C 124.44 637.69 129.44 640.17 134.17 643.01 C 133.58 632.85 116.86 633.02 118.08 622.99 C 119.10 617.19 116.44 612.00 113.76 607.15 C 119.92 609.87 124.06 615.69 129.57 619.47 C 145.59 631.60 168.51 632.29 182.13 647.86 C 189.21 654.14 191.60 663.74 196.92 671.25 C 197.80 661.81 191.94 653.76 187.95 645.88 C 196.81 651.67 201.05 661.54 206.05 670.14 C 204.39 659.80 199.75 649.07 191.41 642.53 C 187.42 638.29 181.14 640.46 176.90 637.13 C 163.80 627.78 147.21 625.27 133.96 616.10 C 130.20 614.95 129.52 610.66 129.38 607.26 C 128.68 572.74 139.79 539.67 152.20 507.97 C 158.72 522.63 166.16 538.08 177.07 550.13 C 175.95 544.58 171.61 540.40 170.01 535.10 C 168.45 528.76 165.38 522.94 163.24 516.80 M 171.22 415.35 C 165.04 429.49 166.96 446.28 169.61 461.32 C 177.94 506.65 206.72 545.46 214.02 590.99 C 194.08 588.05 175.67 576.53 163.04 560.87 C 161.70 579.00 167.11 599.40 183.05 609.92 C 202.41 622.11 227.23 623.70 248.99 618.00 C 251.87 617.47 253.71 614.40 252.47 611.66 C 248.78 578.15 229.76 549.60 212.10 521.92 C 195.88 496.84 182.06 469.67 175.62 440.34 C 173.59 432.88 173.61 420.86 171.22 415.35 Z" />
<path fill="#333333" opacity="1.00" d=" M 762.97 468.66 C 786.82 467.49 813.40 471.40 830.84 489.20 C 842.62 500.27 850.40 519.04 842.37 534.34 C 840.30 553.06 845.21 575.26 830.03 590.04 C 835.43 572.44 824.95 554.13 830.46 536.39 C 831.75 527.53 841.47 522.03 838.03 512.00 C 834.08 496.59 820.07 487.25 806.91 480.11 C 788.96 471.91 768.62 475.52 750.69 481.70 C 734.21 487.78 718.48 495.92 704.21 506.21 C 703.36 507.14 701.53 507.43 700.91 506.11 C 696.16 499.13 687.87 495.88 681.94 490.25 C 708.21 480.80 734.64 469.93 762.97 468.66 Z" />
<path fill="#333333" opacity="1.00" d=" M 546.16 565.80 C 558.25 601.13 557.79 642.03 539.15 675.04 C 542.56 677.04 544.53 670.58 547.04 669.03 C 564.40 648.38 572.80 620.51 568.18 593.71 C 575.77 597.49 577.78 606.71 581.37 613.66 C 582.01 615.98 585.96 615.37 585.89 612.90 C 587.90 598.17 589.90 581.15 601.84 570.86 C 602.16 595.01 606.90 619.04 615.43 641.62 C 624.02 663.60 635.43 685.89 655.09 699.90 C 660.55 702.94 668.04 710.74 674.03 704.05 C 708.40 682.57 731.19 644.82 735.81 604.75 C 736.71 644.22 716.03 679.67 694.97 711.13 C 705.33 702.17 712.11 689.90 719.73 678.75 C 721.35 695.86 728.18 712.30 737.20 726.78 C 743.62 730.11 729.24 713.59 740.83 717.59 C 746.56 715.57 752.51 719.86 753.44 725.64 C 760.25 757.13 766.99 788.92 780.58 818.34 C 783.00 822.09 775.15 817.26 776.30 819.74 C 784.64 824.94 795.00 831.59 793.91 842.91 C 792.68 848.01 789.09 852.04 785.91 856.06 C 787.51 855.82 789.09 855.41 790.70 855.16 C 790.99 861.30 800.07 862.75 802.48 865.72 C 800.83 867.36 799.36 869.17 797.90 870.98 C 794.97 872.53 791.91 873.86 788.83 875.07 C 786.97 875.54 785.11 875.95 783.23 876.23 C 776.44 876.31 769.66 876.12 763.16 874.03 C 760.03 872.86 756.97 871.55 753.96 870.14 C 749.32 867.24 745.37 863.37 742.35 858.83 C 744.52 852.78 749.79 851.32 755.12 854.02 C 750.23 848.79 744.22 842.91 745.08 835.00 C 745.65 812.70 738.28 789.55 722.97 773.05 C 720.43 771.65 714.95 764.39 723.58 766.45 C 725.49 765.51 732.95 766.03 729.79 763.18 C 708.46 764.47 686.44 763.31 666.70 754.28 C 648.26 746.91 630.53 734.43 622.23 715.78 C 602.89 678.91 590.36 636.83 595.05 594.91 C 586.47 619.58 591.97 647.89 598.86 673.01 C 585.88 671.47 573.58 675.61 562.08 681.11 C 571.80 659.42 580.56 634.31 574.08 610.80 C 574.19 640.41 564.79 670.24 547.00 694.00 C 536.38 706.91 523.42 719.28 507.04 724.11 C 506.53 715.30 508.62 706.62 510.00 697.99 C 512.03 685.47 524.02 678.14 529.16 667.11 C 547.93 637.17 552.55 600.10 546.16 565.80 Z" />
</g>
<g id="#de9f4eff">
<path fill="#de9f4e" opacity="1.00" d=" M 431.92 210.82 C 434.58 209.84 437.24 208.90 439.91 207.96 C 437.88 212.41 445.57 212.12 448.03 214.18 C 447.92 217.23 444.13 218.29 442.54 220.52 C 437.48 225.33 439.79 233.24 441.08 239.04 C 439.18 239.73 437.29 240.41 435.44 241.21 C 433.12 240.51 430.91 239.51 428.79 238.35 C 427.26 232.83 426.66 226.98 429.67 221.81 C 431.10 218.32 423.66 219.23 425.09 215.32 C 427.34 213.77 429.66 212.35 431.92 210.82 Z" />
</g>
<g id="#c3924bff">
<path fill="#c3924b" opacity="1.00" d=" M 416.71 220.17 C 417.40 213.35 426.73 213.17 431.92 210.82 C 429.66 212.35 427.34 213.77 425.09 215.32 C 423.66 219.23 431.10 218.32 429.67 221.81 C 426.66 226.98 427.26 232.83 428.79 238.35 C 420.61 235.53 415.97 228.82 416.71 220.17 Z" />
</g>
<g id="#080606ff">
<path fill="#080606" opacity="1.00" d=" M 365.17 233.75 C 355.31 232.96 356.89 221.77 360.75 215.75 C 362.01 219.84 358.95 226.01 363.27 228.82 C 367.54 229.44 372.06 228.88 376.06 227.23 C 385.07 222.87 400.75 216.39 406.42 227.98 C 397.75 242.02 378.60 236.09 365.17 233.75 M 391.99 227.86 C 390.14 227.88 388.43 228.61 386.75 229.27 C 378.69 231.21 394.33 234.43 393.97 231.09 C 395.28 231.05 396.43 230.56 397.42 229.64 C 403.38 229.90 393.11 222.10 391.99 227.86 Z" />
</g>
<g id="#897542ff">
<path fill="#897542" opacity="1.00" d=" M 275.08 220.83 C 275.45 219.16 279.63 219.15 279.81 220.95 C 278.23 221.03 276.65 221.01 275.08 220.83 Z" />
</g>
<g id="#a3773cff">
<path fill="#a3773c" opacity="1.00" d=" M 125.94 220.89 C 128.60 222.74 131.19 224.69 133.85 226.55 C 137.52 229.17 141.15 231.88 144.97 234.29 C 148.91 236.64 152.82 239.04 156.79 241.34 C 161.80 244.29 166.88 248.33 172.97 248.06 C 173.73 248.06 175.24 248.08 176.00 248.08 C 165.04 252.23 152.26 245.19 141.30 240.95 C 142.47 231.81 129.70 228.12 125.94 220.89 Z" />
</g>
<g id="#9e8b3dff">
<path fill="#9e8b3d" opacity="1.00" d=" M 273.71 225.97 C 267.16 225.63 269.74 220.33 275.08 220.83 C 274.46 222.49 274.04 224.22 273.71 225.97 Z" />
</g>
<g id="#f1d96aff">
<path fill="#f1d96a" opacity="1.00" d=" M 275.08 220.83 C 276.65 221.01 278.23 221.03 279.81 220.95 C 284.86 221.45 289.59 223.76 294.11 225.97 C 296.59 230.50 288.87 228.61 285.98 229.06 C 282.22 228.25 276.50 229.09 273.71 225.97 C 274.04 224.22 274.46 222.49 275.08 220.83 Z" />
</g>
<g id="#b98c49ff">
<path fill="#b98c49" opacity="1.00" d=" M 196.48 223.57 C 201.02 226.26 204.68 230.10 208.30 233.89 C 200.07 239.26 192.67 247.56 181.85 246.93 C 185.25 244.18 190.76 242.13 188.46 236.79 C 183.99 228.84 199.28 230.71 196.48 223.57 Z" />
</g>
<g id="#7a6928ff">
<path fill="#7a6928" opacity="1.00" d=" M 294.11 225.97 C 297.72 226.09 305.25 232.02 295.02 230.03 C 293.47 228.20 286.74 231.90 285.98 229.06 C 288.87 228.61 296.59 230.50 294.11 225.97 Z" />
</g>
<g id="#95844aff">
<path fill="#95844a" opacity="1.00" d=" M 391.99 227.86 C 393.11 222.10 403.38 229.90 397.42 229.64 C 396.56 227.41 393.84 228.18 391.99 227.86 Z" />
</g>
<g id="#ead875ff">
<path fill="#ead875" opacity="1.00" d=" M 386.75 229.27 C 388.43 228.61 390.14 227.88 391.99 227.86 C 393.84 228.18 396.56 227.41 397.42 229.64 C 396.43 230.56 395.28 231.05 393.97 231.09 C 391.42 230.69 387.45 232.38 386.75 229.27 Z" />
</g>
<g id="#958539ff">
<path fill="#958539" opacity="1.00" d=" M 393.97 231.09 C 394.33 234.43 378.69 231.21 386.75 229.27 C 387.45 232.38 391.42 230.69 393.97 231.09 Z" />
</g>
<g id="#9c7440ff">
<path fill="#9c7440" opacity="1.00" d=" M 441.08 239.04 C 445.44 237.68 449.81 236.29 454.26 235.19 C 448.62 238.62 442.25 245.58 435.44 241.21 C 437.29 240.41 439.18 239.73 441.08 239.04 Z" />
</g>
<g id="#4b4b4bff">
<path fill="#4b4b4b" opacity="1.00" d=" M 417.14 237.17 C 424.03 241.92 431.30 246.47 439.67 248.01 C 451.87 251.32 465.28 251.03 477.33 250.67 C 479.84 261.36 471.97 272.85 462.00 277.02 C 451.73 281.42 439.77 279.95 430.11 274.61 C 426.25 272.01 419.36 270.16 421.00 264.11 C 437.35 266.51 453.78 260.37 468.22 253.10 C 453.33 253.43 439.22 259.96 424.24 258.99 C 423.21 254.44 425.26 247.10 419.87 245.17 C 411.65 247.68 416.27 240.43 417.14 237.17 Z" />
<path fill="#4b4b4b" opacity="1.00" d=" M 662.05 483.19 C 696.12 475.24 728.45 459.06 763.99 457.97 C 770.66 458.08 777.31 457.99 784.00 457.97 C 823.69 460.76 860.63 492.61 865.25 532.88 C 866.58 542.49 865.94 552.26 865.97 561.95 C 864.41 556.97 864.23 548.75 860.82 543.04 C 857.90 542.18 854.83 545.29 857.47 548.61 C 861.92 570.11 846.20 591.24 825.91 597.08 C 826.57 594.41 828.33 592.14 830.03 590.04 C 845.21 575.26 840.30 553.06 842.37 534.34 C 850.40 519.04 842.62 500.27 830.84 489.20 C 813.40 471.40 786.82 467.49 762.97 468.66 C 734.64 469.93 708.21 480.80 681.94 490.25 C 675.61 487.30 667.86 485.79 662.05 483.19 Z" />
</g>
<g id="#4b4a4aff">
<path fill="#4b4a4a" opacity="1.00" d=" M 188.89 251.97 C 198.17 253.56 205.36 246.05 213.79 245.06 C 218.64 250.66 215.42 258.59 211.47 263.85 C 209.22 265.64 206.67 268.07 203.61 266.50 C 183.69 258.89 162.01 256.10 140.79 257.58 C 139.50 257.60 138.22 257.63 136.93 257.74 C 136.97 257.32 137.03 256.49 137.06 256.07 C 154.50 257.06 171.93 255.42 188.89 251.97 Z" />
</g>
<g id="#030303ff">
<path fill="#030303" opacity="1.00" d=" M 322.33 250.25 C 331.50 247.32 338.29 257.97 337.00 266.08 C 331.83 264.98 329.55 257.18 323.19 259.06 C 319.49 261.88 323.55 269.81 318.18 269.94 C 313.66 263.97 314.67 253.12 322.33 250.25 Z" />
</g>
<g id="#060606ff">
<path fill="#060606" opacity="1.00" d=" M 410.29 254.24 C 416.81 251.48 416.34 262.58 411.98 263.98 C 408.49 260.35 405.07 263.59 401.99 267.13 C 402.45 261.88 406.53 257.65 410.29 254.24 Z" />
<path fill="#060606" opacity="1.00" d=" M 430.96 297.80 C 445.86 325.67 455.40 356.44 460.10 387.72 C 463.09 419.03 459.86 451.52 446.15 480.13 C 431.39 510.10 407.41 536.66 376.94 550.96 C 381.25 547.55 385.54 544.12 389.39 540.19 C 391.98 538.24 394.53 536.25 396.99 534.14 C 417.29 516.07 435.03 494.36 444.62 468.65 C 466.78 413.07 450.97 351.46 430.96 297.80 Z" />
</g>
<g id="#aa8b33ff">
<path fill="#aa8b33" opacity="1.00" d=" M 136.93 257.74 C 138.22 257.63 139.50 257.60 140.79 257.58 C 142.53 257.99 144.26 258.47 146.01 258.89 C 149.34 272.00 158.73 283.96 171.98 288.03 C 181.07 290.75 190.55 288.50 199.24 285.60 C 182.22 298.21 158.24 293.33 143.32 279.73 C 138.82 274.33 131.23 264.27 136.93 257.74 Z" />
</g>
<g id="#070606ff">
<path fill="#070606" opacity="1.00" d=" M 140.79 257.58 C 162.01 256.10 183.69 258.89 203.61 266.50 C 206.67 268.07 209.22 265.64 211.47 263.85 C 212.31 268.48 205.32 271.80 201.42 269.57 C 183.17 264.92 164.54 262.17 146.01 258.89 C 144.26 258.47 142.53 257.99 140.79 257.58 Z" />
</g>
<g id="#a98a35ff">
<path fill="#a98a35" opacity="1.00" d=" M 218.27 268.77 C 219.27 282.62 219.93 297.75 228.82 309.23 C 236.34 321.30 251.35 323.44 264.19 321.58 C 253.95 325.43 242.20 330.12 231.77 324.27 C 221.77 318.31 217.89 306.19 216.71 295.23 C 216.82 290.06 217.01 284.91 216.80 279.75 C 217.26 276.08 217.95 272.46 218.27 268.77 Z" />
</g>
<g id="#343332ff">
<path fill="#343332" opacity="1.00" d=" M 199.34 290.69 C 206.45 286.80 209.95 279.60 214.99 273.77 C 211.87 289.55 211.20 307.31 220.93 321.04 C 228.46 331.25 242.76 334.70 254.58 330.54 C 267.24 327.71 278.05 319.05 290.47 316.25 C 291.76 323.36 300.10 320.48 305.00 323.06 C 317.39 330.31 329.84 341.86 345.32 338.36 C 353.47 338.47 361.64 339.35 369.75 338.06 C 367.88 345.94 367.33 354.14 368.73 362.16 C 373.68 385.62 376.74 411.40 366.85 433.95 C 370.20 414.39 363.17 395.47 355.02 377.99 C 352.42 372.38 351.45 366.20 350.59 360.13 C 336.58 361.55 320.74 362.39 309.15 352.85 C 305.82 349.58 301.02 352.37 297.02 351.98 C 293.29 351.89 289.74 346.02 286.19 349.20 C 267.23 362.48 239.57 371.24 218.88 357.00 C 219.57 379.27 231.00 399.36 241.80 418.24 C 251.25 432.49 259.94 447.24 269.80 461.21 C 270.22 462.10 270.64 462.99 271.07 463.88 C 271.06 474.53 271.40 485.23 272.88 495.79 C 267.09 498.63 259.54 496.16 253.03 497.12 C 253.81 500.08 250.96 506.35 255.65 507.40 C 262.89 509.56 278.84 502.86 274.94 516.78 C 269.47 519.67 262.18 517.12 256.01 518.09 C 256.27 521.15 256.87 524.18 256.80 527.27 C 242.83 503.28 225.37 481.56 210.43 458.20 C 209.47 451.92 205.48 446.71 203.25 440.85 C 194.63 420.73 190.59 398.99 188.64 377.28 C 189.13 367.78 189.10 358.27 188.74 348.77 C 189.30 328.97 194.33 309.72 199.34 290.69 Z" />
</g>
<g id="#513e0aff">
<path fill="#513e0a" opacity="1.00" d=" M 216.71 295.23 C 215.90 290.10 215.76 284.85 216.80 279.75 C 217.01 284.91 216.82 290.06 216.71 295.23 Z" />
</g>
<g id="#4d4d4dff">
<path fill="#4d4d4d" opacity="1.00" d=" M 416.03 284.77 C 425.20 289.50 435.61 296.45 446.08 291.06 C 494.23 356.84 520.25 436.19 539.27 514.72 C 541.05 508.99 540.18 497.76 538.04 489.99 C 528.25 443.29 511.68 398.19 491.92 354.87 C 529.07 394.40 567.61 433.66 613.11 463.87 C 625.96 472.09 639.71 479.52 654.26 483.80 C 638.40 483.95 622.57 490.79 610.90 501.04 C 624.09 494.98 637.91 488.18 653.00 488.93 C 671.21 487.87 687.58 498.69 699.28 511.71 C 721.95 537.06 735.27 570.71 735.81 604.75 C 731.19 644.82 708.40 682.57 674.03 704.05 C 668.04 710.74 660.55 702.94 655.09 699.90 C 635.43 685.89 624.02 663.60 615.43 641.62 C 606.90 619.04 602.16 595.01 601.84 570.86 C 589.90 581.15 587.90 598.17 585.89 612.90 C 585.96 615.37 582.01 615.98 581.37 613.66 C 577.78 606.71 575.77 597.49 568.18 593.71 C 572.80 620.51 564.40 648.38 547.04 669.03 C 544.53 670.58 542.56 677.04 539.15 675.04 C 557.79 642.03 558.25 601.13 546.16 565.80 C 542.06 553.71 539.09 540.56 531.93 529.85 C 533.58 539.47 539.45 548.04 540.00 557.96 C 539.85 574.86 541.65 593.52 532.86 608.80 C 531.22 610.16 528.04 612.49 526.67 609.33 C 513.53 587.84 501.17 565.30 484.98 545.84 C 493.91 571.92 504.27 598.42 504.61 626.45 C 503.52 646.11 491.38 664.79 474.07 674.01 C 469.32 658.54 465.79 639.81 452.03 629.74 C 460.74 644.60 464.02 663.07 458.71 679.70 C 433.12 685.26 406.58 677.27 384.14 664.94 C 368.57 656.17 353.88 645.30 342.94 631.02 C 322.91 604.27 316.98 569.48 319.00 536.81 C 317.29 537.84 315.77 539.14 314.13 540.27 C 314.06 538.50 313.95 536.74 313.96 534.98 C 320.71 530.85 328.83 535.20 336.25 533.74 C 338.18 533.93 341.86 534.08 340.96 536.98 C 338.17 552.36 331.99 567.18 331.04 582.84 C 338.21 584.31 345.63 584.16 352.89 584.99 C 358.23 574.14 361.69 562.38 367.78 551.89 C 372.02 548.61 372.75 542.88 376.29 539.10 C 380.62 539.10 385.36 538.02 389.39 540.19 C 385.54 544.12 381.25 547.55 376.94 550.96 C 376.64 551.22 376.02 551.73 375.72 551.98 C 412.94 545.34 447.49 519.00 459.45 482.37 C 469.28 452.10 469.59 417.69 460.10 387.72 C 455.40 356.44 445.86 325.67 430.96 297.80 C 450.97 351.46 466.78 413.07 444.62 468.65 C 435.03 494.36 417.29 516.07 396.99 534.14 C 396.95 531.30 398.59 528.91 399.04 526.20 C 395.13 523.35 389.75 524.62 385.29 523.67 C 383.19 521.49 385.50 518.73 386.79 516.78 C 392.18 511.72 401.01 520.71 406.01 515.00 C 408.38 511.41 414.61 502.56 405.86 503.98 C 400.88 503.85 395.91 504.24 390.95 503.89 C 394.28 488.15 403.32 472.75 402.33 456.72 C 388.19 455.74 373.52 454.75 359.18 453.28 C 356.96 455.08 357.31 458.57 357.03 461.03 C 355.90 474.12 352.86 486.94 350.69 499.87 C 339.26 500.60 327.86 499.42 316.49 498.49 C 315.98 492.09 314.91 485.27 316.97 479.04 C 318.99 470.11 317.78 460.86 317.81 451.81 C 317.79 451.39 317.76 450.56 317.74 450.14 C 301.87 449.12 286.06 446.81 270.10 448.08 C 269.93 452.44 269.88 456.83 269.80 461.21 C 259.94 447.24 251.25 432.49 241.80 418.24 C 231.00 399.36 219.57 379.27 218.88 357.00 C 239.57 371.24 267.23 362.48 286.19 349.20 C 289.74 346.02 293.29 351.89 297.02 351.98 C 301.02 352.37 305.82 349.58 309.15 352.85 C 320.74 362.39 336.58 361.55 350.59 360.13 C 351.45 366.20 352.42 372.38 355.02 377.99 C 363.17 395.47 370.20 414.39 366.85 433.95 C 365.60 437.24 364.52 440.58 363.92 444.07 C 379.20 435.75 386.51 417.86 388.38 401.33 C 391.00 385.31 386.03 369.66 383.97 353.97 C 383.42 348.52 390.55 346.99 394.07 344.08 C 399.62 339.20 408.36 343.27 413.30 337.32 C 419.09 332.30 418.08 323.68 418.98 316.83 C 418.47 306.12 414.03 295.76 416.03 284.77 Z" />
</g>
<g id="#ae8b31ff">
<path fill="#ae8b31" opacity="1.00" d=" M 184.35 319.29 C 188.72 309.31 186.82 294.20 199.34 290.69 C 194.33 309.72 189.30 328.97 188.74 348.77 C 188.01 358.20 187.07 367.89 188.64 377.28 C 190.59 398.99 194.63 420.73 203.25 440.85 C 202.93 441.99 202.58 443.12 202.21 444.26 C 189.84 423.57 181.34 400.17 179.98 375.99 C 179.99 366.98 180.04 357.99 179.98 348.99 C 179.63 338.88 182.52 329.13 184.35 319.29 Z" />
</g>
<g id="#040404ff">
<path fill="#040404" opacity="1.00" d=" M 350.41 295.56 C 367.11 294.28 384.91 294.11 400.31 301.70 C 404.06 304.14 408.15 307.38 409.15 312.02 C 390.85 297.73 365.88 301.17 344.30 301.29 C 331.17 302.06 318.41 305.63 305.87 309.06 C 317.69 298.69 335.35 297.97 350.41 295.56 Z" />
</g>
<g id="#343434ff">
<path fill="#343434" opacity="1.00" d=" M 400.38 323.42 C 407.36 324.09 417.00 325.78 418.98 316.83 C 418.08 323.68 419.09 332.30 413.30 337.32 C 408.36 343.27 399.62 339.20 394.07 344.08 C 390.55 346.99 383.42 348.52 383.97 353.97 C 386.03 369.66 391.00 385.31 388.38 401.33 C 386.51 417.86 379.20 435.75 363.92 444.07 C 364.52 440.58 365.60 437.24 366.85 433.95 C 366.92 435.37 367.02 436.80 367.17 438.22 C 376.80 421.74 379.53 401.69 377.18 382.94 C 375.92 367.67 368.91 351.47 375.42 336.43 C 383.89 332.39 392.32 328.23 400.38 323.42 Z" />
</g>
<g id="#726731ff">
<path fill="#726731" opacity="1.00" d=" M 179.10 376.06 C 179.85 367.67 177.24 355.73 179.98 348.99 C 180.04 357.99 179.99 366.98 179.98 375.99 L 179.10 376.06 Z" />
</g>
<g id="#665b2dff">
<path fill="#665b2d" opacity="1.00" d=" M 188.64 377.28 C 187.07 367.89 188.01 358.20 188.74 348.77 C 189.10 358.27 189.13 367.78 188.64 377.28 Z" />
</g>
<g id="#ac8b32ff">
<path fill="#ac8b32" opacity="1.00" d=" M 145.51 458.13 C 142.05 428.28 153.26 397.46 173.86 375.85 L 174.00 376.87 C 174.45 380.73 174.89 384.61 175.11 388.51 C 146.78 424.48 146.91 475.59 163.24 516.80 C 163.04 517.40 162.63 518.60 162.43 519.20 C 153.39 502.16 147.93 482.94 146.06 463.77 C 145.92 462.36 145.65 459.54 145.51 458.13 Z" />
</g>
<g id="#070505ff">
<path fill="#070505" opacity="1.00" d=" M 179.10 376.06 L 179.98 375.99 C 181.34 400.17 189.84 423.57 202.21 444.26 C 204.43 449.19 207.51 453.66 210.43 458.20 C 225.37 481.56 242.83 503.28 256.80 527.27 C 257.37 528.29 257.97 529.31 258.59 530.32 C 270.93 552.40 278.22 577.47 278.02 602.87 C 275.64 593.02 274.60 578.78 270.37 567.64 C 251.99 511.52 202.75 472.41 183.02 416.94 C 178.96 407.87 177.45 398.06 175.11 388.51 C 174.89 384.61 174.45 380.73 174.00 376.87 C 176.57 376.41 176.60 379.37 176.39 381.15 C 179.17 381.05 179.02 378.10 179.10 376.06 Z" />
</g>
<g id="#857449ff">
<path fill="#857449" opacity="1.00" d=" M 203.25 440.85 C 205.48 446.71 209.47 451.92 210.43 458.20 C 207.51 453.66 204.43 449.19 202.21 444.26 C 202.58 443.12 202.93 441.99 203.25 440.85 Z" />
</g>
<g id="#987c04ff">
<path fill="#987c04" opacity="1.00" d=" M 270.10 448.08 C 286.06 446.81 301.87 449.12 317.74 450.14 C 317.76 450.56 317.79 451.39 317.81 451.81 C 316.48 460.83 317.19 469.96 316.97 479.04 C 314.91 485.27 315.98 492.09 316.49 498.49 C 327.86 499.42 339.26 500.60 350.69 499.87 C 352.86 486.94 355.90 474.12 357.03 461.03 C 357.31 458.57 356.96 455.08 359.18 453.28 C 373.52 454.75 388.19 455.74 402.33 456.72 C 403.32 472.75 394.28 488.15 390.95 503.89 C 395.91 504.24 400.88 503.85 405.86 503.98 C 411.94 506.19 405.18 511.54 403.74 514.94 C 397.88 515.32 392.07 513.75 386.23 514.13 C 383.69 516.89 383.04 520.86 381.07 524.02 C 386.20 525.52 391.82 524.89 397.05 526.16 C 396.74 530.26 394.05 533.70 391.66 536.87 C 386.06 537.77 380.10 535.87 374.65 536.81 C 371.17 541.06 369.81 546.80 367.78 551.89 C 361.69 562.38 358.23 574.14 352.89 584.99 C 345.63 584.16 338.21 584.31 331.04 582.84 C 331.99 567.18 338.17 552.36 340.96 536.98 C 341.86 534.08 338.18 533.93 336.25 533.74 C 328.88 532.92 321.50 531.94 314.08 532.01 C 314.05 532.75 313.99 534.24 313.96 534.98 C 313.95 536.74 314.06 538.50 314.13 540.27 C 314.06 540.67 313.92 541.46 313.85 541.85 C 307.94 550.32 304.15 559.87 300.21 569.35 C 302.87 531.89 290.61 495.37 271.07 463.88 C 270.64 462.99 270.22 462.10 269.80 461.21 C 269.88 456.83 269.93 452.44 270.10 448.08 Z" />
</g>
<g id="#645921ff">
<path fill="#645921" opacity="1.00" d=" M 316.97 479.04 C 317.19 469.96 316.48 460.83 317.81 451.81 C 317.78 460.86 318.99 470.11 316.97 479.04 Z" />
</g>
<g id="#252525ff">
<path fill="#252525" opacity="1.00" d=" M 763.99 457.97 C 768.17 456.26 779.83 456.26 784.00 457.97 C 777.31 457.99 770.66 458.08 763.99 457.97 Z" />
</g>
<g id="#57451aff">
<path fill="#57451a" opacity="1.00" d=" M 145.51 458.13 C 145.65 459.54 145.92 462.36 146.06 463.77 C 143.78 463.52 144.22 459.44 145.51 458.13 Z" />
</g>
<g id="#655205ff">
<path fill="#655205" opacity="1.00" d=" M 271.07 463.88 C 290.61 495.37 302.87 531.89 300.21 569.35 C 304.15 559.87 307.94 550.32 313.85 541.85 C 312.17 554.45 313.04 567.85 310.78 579.90 C 301.67 579.75 292.24 579.53 283.28 577.74 C 280.50 562.67 281.21 546.43 277.77 531.27 C 272.89 527.32 264.45 531.46 258.59 530.32 C 257.97 529.31 257.37 528.29 256.80 527.27 C 256.87 524.18 256.27 521.15 256.01 518.09 C 262.18 517.12 269.47 519.67 274.94 516.78 C 278.84 502.86 262.89 509.56 255.65 507.40 C 250.96 506.35 253.81 500.08 253.03 497.12 C 259.54 496.16 267.09 498.63 272.88 495.79 C 271.40 485.23 271.06 474.53 271.07 463.88 Z" />
</g>
<g id="#a88a36ff">
<path fill="#a88a36" opacity="1.00" d=" M 148.25 501.15 C 151.32 500.90 150.97 505.82 152.20 507.97 C 139.79 539.67 128.68 572.74 129.38 607.26 C 128.78 603.20 128.06 599.11 127.98 595.01 C 127.99 588.65 128.05 582.32 127.99 575.98 C 129.08 549.90 139.67 525.45 148.25 501.15 Z" />
</g>
<g id="#5d5430ff">
<path fill="#5d5430" opacity="1.00" d=" M 405.86 503.98 C 414.61 502.56 408.38 511.41 406.01 515.00 C 401.01 520.71 392.18 511.72 386.79 516.78 C 385.50 518.73 383.19 521.49 385.29 523.67 C 389.75 524.62 395.13 523.35 399.04 526.20 C 398.59 528.91 396.95 531.30 396.99 534.14 C 394.53 536.25 391.98 538.24 389.39 540.19 C 385.36 538.02 380.62 539.10 376.29 539.10 C 372.75 542.88 372.02 548.61 367.78 551.89 C 369.81 546.80 371.17 541.06 374.65 536.81 C 380.10 535.87 386.06 537.77 391.66 536.87 C 394.05 533.70 396.74 530.26 397.05 526.16 C 391.82 524.89 386.20 525.52 381.07 524.02 C 383.04 520.86 383.69 516.89 386.23 514.13 C 392.07 513.75 397.88 515.32 403.74 514.94 C 405.18 511.54 411.94 506.19 405.86 503.98 Z" />
</g>
<g id="#807750ff">
<path fill="#807750" opacity="1.00" d=" M 163.24 516.80 C 165.38 522.94 168.45 528.76 170.01 535.10 C 166.69 530.49 163.95 524.71 162.43 519.20 C 162.63 518.60 163.04 517.40 163.24 516.80 Z" />
</g>
<g id="#6e6028ff">
<path fill="#6e6028" opacity="1.00" d=" M 314.08 532.01 C 321.50 531.94 328.88 532.92 336.25 533.74 C 328.83 535.20 320.71 530.85 313.96 534.98 C 313.99 534.24 314.05 532.75 314.08 532.01 Z" />
</g>
<g id="#574c24ff">
<path fill="#574c24" opacity="1.00" d=" M 127.98 595.01 C 126.87 591.18 125.40 579.94 127.99 575.98 C 128.05 582.32 127.99 588.65 127.98 595.01 Z" />
</g>
<g id="#090604ff">
<path fill="#090604" opacity="1.00" d=" M 309.12 601.92 C 307.38 591.61 309.60 597.82 310.60 600.04 C 323.02 651.15 361.44 693.95 410.17 713.33 C 416.56 716.64 423.90 717.63 430.23 721.02 C 417.43 719.81 406.25 712.78 393.93 709.94 C 389.91 707.07 385.70 704.34 380.96 702.87 C 393.70 719.50 406.25 736.39 416.18 754.89 C 413.28 755.49 411.94 752.24 411.64 749.93 C 410.16 750.81 410.53 752.56 410.07 753.98 C 406.58 749.27 404.40 743.72 400.67 739.19 C 383.30 739.34 365.85 737.52 349.11 732.81 C 346.20 730.83 342.64 730.57 339.97 733.13 C 349.43 743.99 359.31 754.53 370.10 764.08 C 369.79 764.37 369.17 764.95 368.86 765.24 C 366.61 763.73 364.39 762.15 361.97 760.91 C 362.04 762.61 362.20 766.02 362.27 767.73 C 359.25 769.12 358.88 765.15 358.19 763.16 C 361.84 762.32 360.45 759.00 359.70 756.37 C 353.50 755.44 351.47 748.50 345.83 746.16 C 343.39 741.40 337.98 737.85 337.76 732.17 C 336.10 731.95 334.43 731.90 332.77 731.79 C 334.62 731.02 336.49 730.27 338.21 729.21 C 327.93 724.47 317.42 719.81 308.97 712.05 C 279.76 689.27 271.69 646.01 285.98 612.74 C 278.17 647.04 284.37 688.53 314.75 710.29 C 338.82 727.60 369.04 733.39 398.08 734.90 C 388.35 718.82 376.11 704.38 363.23 690.77 C 334.79 669.43 314.84 637.08 309.12 601.92 Z" />
</g>
<g id="#a98934ff">
<path fill="#a98934" opacity="1.00" d=" M 310.60 600.04 C 310.90 599.85 311.48 599.47 311.78 599.28 C 319.51 621.42 333.67 640.64 348.40 658.61 C 366.50 679.13 387.07 698.00 410.63 712.05 C 410.52 712.37 410.28 713.01 410.17 713.33 C 361.44 693.95 323.02 651.15 310.60 600.04 Z" />
<path fill="#a98934" opacity="1.00" d=" M 79.50 611.83 C 78.73 616.96 73.00 620.92 73.96 627.00 C 74.37 654.02 99.64 672.00 103.80 698.08 C 105.19 710.59 104.90 723.19 105.25 735.76 C 105.00 744.57 104.56 753.44 105.75 762.23 C 105.99 765.41 106.18 768.50 106.40 771.73 C 106.15 772.37 105.63 773.65 105.37 774.29 C 101.58 747.60 103.90 719.58 93.96 694.01 C 87.02 674.68 72.48 658.07 67.97 638.03 C 67.97 635.32 67.98 632.63 67.99 629.96 C 68.76 622.72 73.73 616.04 79.50 611.83 Z" />
</g>
<g id="#483d10ff">
<path fill="#483d10" opacity="1.00" d=" M 67.97 638.03 C 66.31 637.23 66.29 630.74 67.99 629.96 C 67.98 632.63 67.97 635.32 67.97 638.03 Z" />
</g>
<g id="#080605ff">
<path fill="#080605" opacity="1.00" d=" M 132.99 653.76 C 139.23 661.11 137.27 672.45 138.32 681.37 C 140.92 676.84 141.23 671.50 142.84 666.63 C 143.97 674.03 141.31 681.02 139.94 688.14 C 143.46 687.55 143.82 682.84 147.05 681.84 C 145.73 685.83 144.36 690.14 140.62 692.55 C 135.44 695.27 139.92 701.16 140.75 705.23 C 147.74 707.26 155.02 710.92 157.80 718.16 C 160.40 722.93 157.21 730.21 163.13 732.93 C 169.83 736.18 174.17 746.90 182.68 744.42 C 190.62 749.81 195.24 759.85 205.28 761.66 C 195.05 759.10 199.69 766.47 202.53 770.14 C 200.86 774.03 206.37 777.80 202.69 781.28 C 202.25 779.76 201.85 778.25 201.37 776.76 C 200.69 774.31 199.57 772.02 198.40 769.78 C 197.15 767.31 195.83 764.87 194.19 762.66 C 192.36 760.14 190.27 757.81 188.12 755.59 C 184.31 747.38 177.13 749.59 170.23 751.34 C 166.78 751.12 163.33 751.03 160.01 750.03 C 157.16 746.84 155.05 743.12 153.59 739.11 C 151.01 740.21 149.98 743.48 147.14 744.36 C 150.96 737.03 156.19 728.58 152.92 720.08 C 150.22 713.60 143.74 711.35 137.81 709.16 C 126.57 692.26 139.44 672.04 132.99 653.76 M 157.89 735.00 C 158.28 741.37 163.45 750.79 171.03 745.87 C 166.68 742.25 162.05 738.87 157.89 735.00 Z" />
</g>
<g id="#a88836ff">
<path fill="#a88836" opacity="1.00" d=" M 380.96 702.87 C 385.70 704.34 389.91 707.07 393.93 709.94 C 405.11 727.84 417.43 745.11 426.96 764.02 C 429.81 770.80 433.92 777.50 434.13 785.06 C 434.15 786.87 433.54 788.71 432.34 790.09 C 428.54 777.73 422.34 766.20 416.18 754.89 C 406.25 736.39 393.70 719.50 380.96 702.87 Z" />
</g>
<g id="#ab8a34ff">
<path fill="#ab8a34" opacity="1.00" d=" M 339.97 733.13 C 342.64 730.57 346.20 730.83 349.11 732.81 C 359.03 746.97 371.51 759.37 383.93 771.10 C 381.48 773.31 373.89 771.57 369.15 771.12 C 367.02 787.41 366.83 804.42 361.11 820.11 C 356.69 829.14 346.59 834.75 343.58 844.65 C 342.14 855.90 345.05 867.05 347.04 878.05 C 344.38 877.26 341.88 876.00 339.20 875.27 C 336.96 879.89 334.78 884.57 332.04 888.94 C 329.93 887.41 328.05 885.62 326.08 883.97 C 331.23 879.96 335.06 873.64 336.27 866.99 C 338.17 868.36 339.46 870.73 341.92 871.18 C 337.88 862.34 336.00 852.66 335.01 843.05 C 339.29 832.22 351.52 827.02 354.68 815.69 C 358.95 802.95 361.29 789.63 362.31 776.27 C 362.78 773.35 363.28 770.52 362.27 767.73 C 362.20 766.02 362.04 762.61 361.97 760.91 C 364.39 762.15 366.61 763.73 368.86 765.24 C 370.51 766.39 372.22 767.48 374.13 768.16 C 373.07 766.53 371.67 765.19 370.10 764.08 C 359.31 754.53 349.43 743.99 339.97 733.13 Z" />
</g>
<g id="#343331ff">
<path fill="#343331" opacity="1.00" d=" M 349.11 732.81 C 365.85 737.52 383.30 739.34 400.67 739.19 C 404.40 743.72 406.58 749.27 410.07 753.98 C 412.94 759.37 417.22 764.79 418.00 770.93 C 403.66 787.02 388.98 805.37 384.73 827.17 C 380.88 825.51 378.97 821.19 374.87 819.97 C 378.34 830.14 388.18 837.74 388.83 848.91 C 386.78 861.25 375.11 867.93 368.60 877.64 C 365.49 883.97 371.67 888.37 375.92 891.80 C 371.76 894.30 367.25 896.31 362.25 896.23 C 359.20 896.13 356.23 896.13 353.21 896.12 C 350.26 895.32 347.30 894.49 344.26 894.16 C 342.15 893.56 340.09 892.85 338.04 892.09 C 336.01 891.09 333.96 890.13 332.04 888.94 C 334.78 884.57 336.96 879.89 339.20 875.27 C 341.88 876.00 344.38 877.26 347.04 878.05 C 345.05 867.05 342.14 855.90 343.58 844.65 C 346.59 834.75 356.69 829.14 361.11 820.11 C 366.83 804.42 367.02 787.41 369.15 771.12 C 373.89 771.57 381.48 773.31 383.93 771.10 C 371.51 759.37 359.03 746.97 349.11 732.81 Z" />
</g>
<g id="#2c2f2aff">
<path fill="#2c2f2a" opacity="1.00" d=" M 157.89 735.00 C 162.05 738.87 166.68 742.25 171.03 745.87 C 163.45 750.79 158.28 741.37 157.89 735.00 Z" />
</g>
<g id="#5f4b1aff">
<path fill="#5f4b1a" opacity="1.00" d=" M 105.25 735.76 C 106.41 744.53 106.00 753.40 105.75 762.23 C 104.56 753.44 105.00 744.57 105.25 735.76 Z" />
</g>
<g id="#fcec5eff">
<path fill="#fcec5e" opacity="1.00" d=" M 170.23 751.34 C 177.13 749.59 184.31 747.38 188.12 755.59 C 182.64 757.08 180.19 762.69 175.78 765.80 C 171.83 768.98 166.51 768.86 161.76 769.83 C 163.88 763.76 161.21 751.65 170.23 751.34 Z" />
</g>
<g id="#bd9859ff">
<path fill="#bd9859" opacity="1.00" d=" M 160.01 750.03 C 163.33 751.03 166.78 751.12 170.23 751.34 C 161.21 751.65 163.88 763.76 161.76 769.83 C 159.89 779.71 159.91 789.77 160.01 799.80 C 159.61 799.63 158.80 799.30 158.40 799.13 C 157.81 798.84 156.64 798.25 156.05 797.96 C 155.56 797.71 154.57 797.22 154.08 796.98 C 154.49 792.24 154.72 787.51 155.44 782.82 C 160.55 772.61 162.00 761.27 160.01 750.03 Z" />
</g>
<g id="#fcbd4eff">
<path fill="#fcbd4e" opacity="1.00" d=" M 175.78 765.80 C 180.19 762.69 182.64 757.08 188.12 755.59 C 190.27 757.81 192.36 760.14 194.19 762.66 C 187.54 762.20 187.89 771.14 183.30 774.28 C 180.28 778.63 173.68 777.53 170.37 781.36 C 167.36 787.82 168.45 795.14 167.22 802.02 C 166.70 803.77 170.55 806.60 166.95 806.23 C 164.51 805.55 162.21 803.27 159.65 804.90 C 156.40 805.87 153.23 807.05 150.00 808.09 C 151.24 806.28 155.98 804.20 154.03 802.07 C 150.88 799.54 157.86 801.83 158.40 799.13 C 158.80 799.30 159.61 799.63 160.01 799.80 C 159.91 789.77 159.89 779.71 161.76 769.83 C 166.51 768.86 171.83 768.98 175.78 765.80 Z" />
</g>
<g id="#f69b43ff">
<path fill="#f69b43" opacity="1.00" d=" M 183.30 774.28 C 187.89 771.14 187.54 762.20 194.19 762.66 C 195.83 764.87 197.15 767.31 198.40 769.78 C 197.74 779.08 188.53 783.71 182.26 789.29 C 179.37 796.53 181.81 805.94 177.11 812.38 C 173.64 810.55 169.58 809.22 166.95 806.23 C 170.55 806.60 166.70 803.77 167.22 802.02 C 168.45 795.14 167.36 787.82 170.37 781.36 C 173.68 777.53 180.28 778.63 183.30 774.28 Z" />
</g>
<g id="#5d3f06ff">
<path fill="#5d3f06" opacity="1.00" d=" M 370.10 764.08 C 371.67 765.19 373.07 766.53 374.13 768.16 C 372.22 767.48 370.51 766.39 368.86 765.24 C 369.17 764.95 369.79 764.37 370.10 764.08 Z" />
</g>
<g id="#5f4910ff">
<path fill="#5f4910" opacity="1.00" d=" M 362.27 767.73 C 363.28 770.52 362.78 773.35 362.31 776.27 C 361.91 773.43 361.86 770.55 362.27 767.73 Z" />
</g>
<g id="#ca833dff">
<path fill="#ca833d" opacity="1.00" d=" M 198.40 769.78 C 199.57 772.02 200.69 774.31 201.37 776.76 C 202.24 784.52 195.78 789.27 192.10 795.11 C 190.47 802.22 190.54 809.69 188.76 816.82 C 187.16 817.02 185.55 817.06 183.94 817.12 C 181.62 815.68 178.83 814.50 177.11 812.38 C 181.81 805.94 179.37 796.53 182.26 789.29 C 188.53 783.71 197.74 779.08 198.40 769.78 Z" />
</g>
<g id="#6d6544ff">
<path fill="#6d6544" opacity="1.00" d=" M 106.40 771.73 C 107.16 775.80 107.72 779.93 108.03 784.07 C 105.25 782.68 105.79 776.85 105.37 774.29 C 105.63 773.65 106.15 772.37 106.40 771.73 Z" />
</g>
<g id="#66612dff">
<path fill="#66612d" opacity="1.00" d=" M 438.23 777.19 C 438.74 776.02 439.27 774.87 439.87 773.76 C 440.21 778.91 439.84 784.04 439.80 789.23 C 439.28 785.72 438.78 782.23 438.29 778.76 C 438.28 778.37 438.25 777.59 438.23 777.19 Z" />
</g>
<g id="#a7743cff">
<path fill="#a7743c" opacity="1.00" d=" M 201.37 776.76 C 201.85 778.25 202.25 779.76 202.69 781.28 C 205.62 796.70 200.42 811.81 192.82 824.99 C 189.25 823.50 186.52 819.99 183.94 817.12 C 185.55 817.06 187.16 817.02 188.76 816.82 C 190.54 809.69 190.47 802.22 192.10 795.11 C 195.78 789.27 202.24 784.52 201.37 776.76 Z" />
</g>
<g id="#a78838ff">
<path fill="#a78838" opacity="1.00" d=" M 438.29 778.76 C 438.78 782.23 439.28 785.72 439.80 789.23 C 439.80 790.86 439.80 794.13 439.80 795.76 C 439.55 800.49 437.83 805.66 439.72 810.28 C 447.60 824.65 470.03 828.66 473.42 845.16 C 465.39 832.13 449.50 828.50 437.27 820.80 C 436.76 819.22 436.19 817.65 436.02 816.00 C 435.96 810.63 436.05 805.32 435.98 799.98 C 435.47 792.79 437.81 785.87 438.29 778.76 Z" />
</g>
<g id="#dcb377ff">
<path fill="#dcb377" opacity="1.00" d=" M 155.44 782.82 C 154.72 787.51 154.49 792.24 154.08 796.98 C 151.53 796.08 149.59 794.21 148.11 792.02 C 150.49 788.89 152.98 785.87 155.44 782.82 Z" />
</g>
<g id="#f9f8d8ff">
<path fill="#f9f8d8" opacity="1.00" d=" M 148.11 792.02 C 149.59 794.21 151.53 796.08 154.08 796.98 C 154.57 797.22 155.56 797.71 156.05 797.96 C 158.68 804.88 142.69 794.73 142.08 798.89 C 143.73 802.67 150.58 804.01 147.18 809.24 C 145.22 808.49 143.31 809.33 141.94 810.76 C 140.92 811.18 139.90 811.61 138.88 812.05 C 134.67 808.61 130.66 804.60 127.87 799.85 C 128.40 799.58 129.46 799.04 129.99 798.78 C 136.75 799.89 143.66 797.19 148.11 792.02 Z" />
</g>
<g id="#765a26ff">
<path fill="#765a26" opacity="1.00" d=" M 439.72 810.28 C 437.83 805.66 439.55 800.49 439.80 795.76 C 439.93 800.59 439.79 805.41 439.72 810.28 Z" />
</g>
<g id="#b4b4a9ff">
<path fill="#b4b4a9" opacity="1.00" d=" M 126.40 796.91 C 127.67 797.37 128.86 798.02 129.99 798.78 C 129.46 799.04 128.40 799.58 127.87 799.85 C 126.56 799.88 125.91 797.90 126.40 796.91 Z" />
</g>
<g id="#fcf5a1ff">
<path fill="#fcf5a1" opacity="1.00" d=" M 142.08 798.89 C 142.69 794.73 158.68 804.88 156.05 797.96 C 156.64 798.25 157.81 798.84 158.40 799.13 C 157.86 801.83 150.88 799.54 154.03 802.07 C 155.98 804.20 151.24 806.28 150.00 808.09 C 149.05 808.46 148.11 808.84 147.18 809.24 C 150.58 804.01 143.73 802.67 142.08 798.89 Z" />
</g>
<g id="#725b2cff">
<path fill="#725b2c" opacity="1.00" d=" M 436.02 816.00 C 434.72 813.66 433.52 802.29 435.98 799.98 C 436.05 805.32 435.96 810.63 436.02 816.00 Z" />
</g>
<g id="#b47137ff">
<path fill="#b47137" opacity="1.00" d=" M 150.00 808.09 C 153.23 807.05 156.40 805.87 159.65 804.90 C 160.75 807.92 162.77 810.44 164.33 813.24 C 161.27 814.53 153.77 812.07 153.59 817.45 C 155.42 824.65 150.54 820.49 147.95 819.94 C 144.70 817.64 142.19 814.34 138.88 812.05 C 139.90 811.61 140.92 811.18 141.94 810.76 C 143.88 811.51 146.19 811.29 147.18 809.24 C 148.11 808.84 149.05 808.46 150.00 808.09 Z" />
</g>
<g id="#edb57dff">
<path fill="#edb57d" opacity="1.00" d=" M 141.94 810.76 C 143.31 809.33 145.22 808.49 147.18 809.24 C 146.19 811.29 143.88 811.51 141.94 810.76 Z" />
</g>
<g id="#996030ff">
<path fill="#996030" opacity="1.00" d=" M 164.33 813.24 C 166.96 814.57 169.15 817.49 171.10 819.92 C 175.02 826.87 165.24 828.02 163.68 833.87 C 154.82 836.17 153.53 824.50 147.95 819.94 C 150.54 820.49 155.42 824.65 153.59 817.45 C 153.77 812.07 161.27 814.53 164.33 813.24 Z" />
</g>
<g id="#7f542cff">
<path fill="#7f542c" opacity="1.00" d=" M 171.10 819.92 C 175.06 825.01 182.34 828.30 185.00 833.81 C 178.27 834.46 168.78 837.12 163.68 833.87 C 165.24 828.02 175.02 826.87 171.10 819.92 Z" />
</g>
<g id="#a1873bff">
<path fill="#a1873b" opacity="1.00" d=" M 465.22 842.80 C 461.26 837.55 470.12 842.56 470.72 845.38 C 478.18 857.73 484.26 870.90 489.63 884.30 C 495.15 896.22 489.92 909.89 492.65 922.33 C 494.37 927.45 501.38 930.11 500.93 935.75 C 496.26 939.26 491.39 942.53 486.86 946.23 C 486.08 945.16 485.40 944.02 484.72 942.92 C 486.76 937.67 496.58 939.10 495.85 933.26 C 491.11 930.16 486.42 926.04 486.05 920.01 C 486.96 912.72 490.07 905.71 489.71 898.30 C 484.92 878.56 476.73 859.56 465.22 842.80 Z" />
</g>
<g id="#f4f4e8ff">
<path fill="#f4f4e8" opacity="1.00" d=" M 742.35 858.83 C 745.37 863.37 749.32 867.24 753.96 870.14 C 753.55 872.07 753.15 874.02 752.69 875.96 C 749.59 876.14 747.74 872.99 745.17 871.74 C 743.83 870.38 742.48 869.04 741.11 867.74 C 740.60 864.71 741.86 861.77 742.35 858.83 Z" />
</g>
<g id="#b09663ff">
<path fill="#b09663" opacity="1.00" d=" M 797.90 870.98 C 799.36 869.17 800.83 867.36 802.48 865.72 C 803.30 867.35 804.20 869.07 804.03 870.98 C 801.98 870.96 799.94 870.94 797.90 870.98 Z" />
</g>
<g id="#b37238ff">
<path fill="#b37238" opacity="1.00" d=" M 737.75 886.19 C 739.08 880.39 738.28 872.46 741.11 867.74 C 742.48 869.04 743.83 870.38 745.17 871.74 C 747.14 874.35 749.27 876.91 751.78 879.08 C 753.43 880.85 755.12 882.60 756.91 884.26 C 756.18 893.48 754.17 902.64 754.97 912.00 C 753.92 911.35 752.24 911.33 751.81 910.03 C 754.25 902.03 750.40 894.10 748.68 886.32 C 744.73 881.71 739.80 891.06 737.75 886.19 Z" />
</g>
<g id="#f5eaa8ff">
<path fill="#f5eaa8" opacity="1.00" d=" M 753.96 870.14 C 756.97 871.55 760.03 872.86 763.16 874.03 C 762.93 876.64 762.45 879.24 761.98 881.83 C 760.62 881.77 759.28 881.75 757.94 881.84 C 756.10 880.45 754.22 878.95 751.78 879.08 C 749.27 876.91 747.14 874.35 745.17 871.74 C 747.74 872.99 749.59 876.14 752.69 875.96 C 753.15 874.02 753.55 872.07 753.96 870.14 Z" />
</g>
<g id="#f8e75eff">
<path fill="#f8e75e" opacity="1.00" d=" M 788.83 875.07 C 791.91 873.86 794.97 872.53 797.90 870.98 C 799.94 870.94 801.98 870.96 804.03 870.98 C 806.84 875.34 808.21 882.48 809.33 888.30 C 801.06 888.13 790.96 883.14 788.83 875.07 Z" />
</g>
<g id="#ba9655ff">
<path fill="#ba9655" opacity="1.00" d=" M 763.16 874.03 C 769.66 876.12 776.44 876.31 783.23 876.23 C 775.91 877.31 768.07 879.42 762.54 884.60 C 761.81 884.81 761.62 883.89 761.98 881.83 C 762.45 879.24 762.93 876.64 763.16 874.03 Z" />
</g>
<g id="#fbbd4fff">
<path fill="#fbbd4f" opacity="1.00" d=" M 783.23 876.23 C 785.11 875.95 786.97 875.54 788.83 875.07 C 790.96 883.14 801.06 888.13 809.33 888.30 C 810.19 888.69 810.43 889.65 810.05 891.19 C 809.95 892.38 809.95 893.59 810.06 894.80 C 810.05 895.99 809.68 897.08 808.95 898.07 C 804.74 892.83 797.07 896.78 792.03 892.97 C 787.11 891.12 784.42 883.33 778.56 885.48 C 774.15 888.34 764.22 884.89 764.32 892.24 C 763.65 889.71 762.92 887.19 762.54 884.60 C 768.07 879.42 775.91 877.31 783.23 876.23 Z" />
</g>
<g id="#e7c260ff">
<path fill="#e7c260" opacity="1.00" d=" M 751.78 879.08 C 754.22 878.95 756.10 880.45 757.94 881.84 C 757.69 882.44 757.17 883.66 756.91 884.26 C 755.12 882.60 753.43 880.85 751.78 879.08 Z" />
</g>
<g id="#f7f3c3ff">
<path fill="#f7f3c3" opacity="1.00" d=" M 319.61 897.41 C 321.71 893.04 322.82 887.12 326.08 883.97 C 328.05 885.62 329.93 887.41 332.04 888.94 C 333.96 890.13 336.01 891.09 338.04 892.09 C 333.77 893.66 334.81 899.24 330.89 901.00 C 329.62 901.89 329.44 903.66 328.71 904.96 C 325.60 902.55 321.97 900.64 319.61 897.41 Z" />
</g>
<g id="#97602fff">
<path fill="#97602f" opacity="1.00" d=" M 737.75 886.19 C 739.80 891.06 744.73 881.71 748.68 886.32 C 750.40 894.10 754.25 902.03 751.81 910.03 C 745.33 904.30 734.16 894.22 737.75 886.19 Z" />
</g>
<g id="#f79c43ff">
<path fill="#f79c43" opacity="1.00" d=" M 778.56 885.48 C 784.42 883.33 787.11 891.12 792.03 892.97 C 797.07 896.78 804.74 892.83 808.95 898.07 C 807.64 900.57 806.36 903.46 804.07 905.15 C 796.31 906.90 788.19 903.38 781.72 899.28 C 776.74 894.89 766.20 906.22 765.12 896.75 C 764.69 895.28 763.77 893.79 764.32 892.24 C 764.22 884.89 774.15 888.34 778.56 885.48 Z" />
</g>
<g id="#937345ff">
<path fill="#937345" opacity="1.00" d=" M 810.05 891.19 C 811.81 890.94 811.83 895.03 810.06 894.80 C 809.95 893.59 809.95 892.38 810.05 891.19 Z" />
</g>
<g id="#e8c987ff">
<path fill="#e8c987" opacity="1.00" d=" M 338.04 892.09 C 340.09 892.85 342.15 893.56 344.26 894.16 C 340.88 896.43 336.62 897.56 334.08 900.93 C 333.28 900.95 331.69 900.98 330.89 901.00 C 334.81 899.24 333.77 893.66 338.04 892.09 Z" />
</g>
<g id="#fae960ff">
<path fill="#fae960" opacity="1.00" d=" M 362.25 896.23 C 367.25 896.31 371.76 894.30 375.92 891.80 C 378.59 894.61 379.92 899.11 380.15 903.05 C 380.07 903.75 379.90 905.15 379.81 905.85 C 372.78 905.52 364.39 904.14 359.67 898.42 C 357.94 896.66 361.20 896.83 362.25 896.23 Z" />
</g>
<g id="#c49a5aff">
<path fill="#c49a5a" opacity="1.00" d=" M 344.26 894.16 C 347.30 894.49 350.26 895.32 353.21 896.12 C 347.02 899.10 340.63 901.87 335.11 906.04 C 334.88 904.57 334.60 903.12 334.25 901.70 L 334.08 900.93 C 336.62 897.56 340.88 896.43 344.26 894.16 Z" />
</g>
<g id="#fbbe4fff">
<path fill="#fbbe4f" opacity="1.00" d=" M 353.21 896.12 C 356.23 896.13 359.20 896.13 362.25 896.23 C 361.20 896.83 357.94 896.66 359.67 898.42 C 364.39 904.14 372.78 905.52 379.81 905.85 C 379.90 905.15 380.07 903.75 380.15 903.05 C 381.28 905.85 381.51 909.58 380.83 914.24 C 379.83 912.23 379.65 908.07 375.44 911.70 C 369.15 913.09 361.73 912.92 356.84 908.21 C 350.66 900.69 341.53 909.86 335.05 913.12 C 335.06 911.35 335.10 907.81 335.11 906.04 C 340.63 901.87 347.02 899.10 353.21 896.12 Z" />
</g>
<g id="#a46834ff">
<path fill="#a46834" opacity="1.00" d=" M 311.98 917.94 C 313.23 911.03 317.49 902.62 319.61 897.41 C 321.97 900.64 325.60 902.55 328.71 904.96 C 327.45 909.32 326.03 913.64 324.89 918.04 C 320.65 919.22 316.28 917.95 311.98 917.94 Z" />
</g>
<g id="#cd843eff">
<path fill="#cd843e" opacity="1.00" d=" M 765.12 896.75 C 766.20 906.22 776.74 894.89 781.72 899.28 C 788.19 903.38 796.31 906.90 804.07 905.15 C 801.83 907.08 800.39 910.80 797.15 911.13 C 790.43 911.79 784.12 910.29 777.79 908.52 C 773.98 908.81 766.99 914.02 766.20 907.73 C 765.50 904.08 764.89 900.45 765.12 896.75 Z" />
</g>
<g id="#694313ff">
<path fill="#694313" opacity="1.00" d=" M 334.25 901.70 C 334.60 903.12 334.88 904.57 335.11 906.04 C 335.10 907.81 335.06 911.35 335.05 913.12 C 334.99 914.73 334.97 916.34 334.95 917.98 L 334.02 918.02 C 333.94 912.55 333.75 907.13 334.25 901.70 Z" />
</g>
<g id="#f69c43ff">
<path fill="#f69c43" opacity="1.00" d=" M 335.05 913.12 C 341.53 909.86 350.66 900.69 356.84 908.21 C 361.73 912.92 369.15 913.09 375.44 911.70 C 379.65 908.07 379.83 912.23 380.83 914.24 C 380.59 915.80 380.55 918.29 378.99 919.01 C 365.79 926.11 351.51 912.68 339.11 922.11 C 335.21 924.51 334.39 921.59 334.95 917.98 C 334.97 916.34 334.99 914.73 335.05 913.12 Z" />
</g>
<g id="#a8763dff">
<path fill="#a8763d" opacity="1.00" d=" M 766.20 907.73 C 766.99 914.02 773.98 908.81 777.79 908.52 C 784.12 910.29 790.43 911.79 797.15 911.13 C 788.93 916.60 777.96 917.81 768.31 916.68 C 763.91 916.18 766.46 910.76 766.20 907.73 Z" />
</g>
<g id="#83552bff">
<path fill="#83552b" opacity="1.00" d=" M 308.33 927.83 C 309.57 924.74 309.31 919.32 311.98 917.94 C 316.28 917.95 320.65 919.22 324.89 918.04 C 323.75 923.73 321.76 929.24 320.73 934.97 C 315.92 934.60 311.48 931.38 308.33 927.83 Z" />
</g>
<g id="#c8823dff">
<path fill="#c8823d" opacity="1.00" d=" M 334.02 918.02 L 334.95 917.98 C 334.39 921.59 335.21 924.51 339.11 922.11 C 351.51 912.68 365.79 926.11 378.99 919.01 C 379.14 921.31 378.18 923.94 376.17 925.18 C 365.88 929.62 353.79 925.25 344.01 931.01 C 341.07 932.09 333.35 937.17 333.90 931.02 C 333.87 926.65 333.83 922.34 334.02 918.02 Z" />
</g>
<g id="#a0703aff">
<path fill="#a0703a" opacity="1.00" d=" M 344.01 931.01 C 353.79 925.25 365.88 929.62 376.17 925.18 C 368.09 938.60 349.25 940.11 335.31 938.68 C 331.48 938.59 331.97 931.71 333.90 931.02 C 333.35 937.17 341.07 932.09 344.01 931.01 Z" />
</g>
<g id="#b89c65ff">
<path fill="#b89c65" opacity="1.00" d=" M 535.96 943.10 C 538.17 940.58 539.97 937.77 541.56 934.84 C 543.30 936.58 544.97 938.47 545.94 940.78 C 542.56 941.30 539.29 942.32 535.96 943.10 Z" />
</g>
<g id="#f9eb60ff">
<path fill="#f9eb60" opacity="1.00" d=" M 535.96 943.10 C 539.29 942.32 542.56 941.30 545.94 940.78 C 549.34 945.84 552.84 951.43 555.21 957.11 C 554.91 960.78 546.92 954.75 544.04 956.90 C 536.32 958.59 533.05 950.53 526.90 948.10 C 529.96 946.51 532.96 944.81 535.96 943.10 Z" />
</g>
<g id="#f9f6e1ff">
<path fill="#f9f6e1" opacity="1.00" d=" M 481.60 949.39 C 482.31 947.09 483.27 944.84 484.72 942.92 C 485.40 944.02 486.08 945.16 486.86 946.23 C 488.67 949.04 492.21 949.80 495.10 951.08 C 493.42 953.28 492.19 956.47 488.91 956.32 C 486.23 954.28 483.35 952.35 481.60 949.39 Z" />
</g>
<g id="#fabd4eff">
<path fill="#fabd4e" opacity="1.00" d=" M 519.10 951.04 C 521.66 949.96 524.29 949.05 526.90 948.10 C 533.05 950.53 536.32 958.59 544.04 956.90 C 546.92 954.75 554.91 960.78 555.21 957.11 C 558.22 956.64 555.62 963.66 555.00 965.74 C 548.04 965.29 541.08 966.24 534.13 965.93 C 529.32 965.19 526.86 959.45 522.10 959.09 C 514.02 963.13 504.46 966.56 499.84 974.91 C 499.94 970.83 500.53 966.87 501.48 962.94 C 501.85 961.87 502.17 960.79 502.43 959.71 L 502.87 960.39 C 502.96 960.77 503.13 961.53 503.22 961.91 C 508.30 957.98 513.50 954.20 519.10 951.04 Z" />
</g>
<g id="#b26e34ff">
<path fill="#b26e34" opacity="1.00" d=" M 473.72 974.36 C 475.22 966.50 479.16 955.18 481.60 949.39 C 483.35 952.35 486.23 954.28 488.91 956.32 C 490.87 957.87 492.85 959.39 494.76 961.01 C 493.91 963.32 493.23 965.77 491.82 967.82 C 485.10 968.94 480.84 976.59 473.72 974.36 Z" />
</g>
<g id="#f1e7a5ff">
<path fill="#f1e7a5" opacity="1.00" d=" M 495.10 951.08 C 497.38 951.40 499.64 951.82 501.93 952.13 C 502.56 954.83 502.97 957.59 502.87 960.39 L 502.43 959.71 L 502.06 959.07 C 502.55 952.71 495.52 957.29 494.76 961.01 C 492.85 959.39 490.87 957.87 488.91 956.32 C 492.19 956.47 493.42 953.28 495.10 951.08 Z" />
</g>
<g id="#bf9a58ff">
<path fill="#bf9a58" opacity="1.00" d=" M 501.93 952.13 C 507.66 951.97 513.39 951.59 519.10 951.04 C 513.50 954.20 508.30 957.98 503.22 961.91 C 503.13 961.53 502.96 960.77 502.87 960.39 C 502.97 957.59 502.56 954.83 501.93 952.13 Z" />
</g>
<g id="#685226ff">
<path fill="#685226" opacity="1.00" d=" M 501.48 962.94 C 500.53 961.97 500.23 959.12 502.06 959.07 L 502.43 959.71 C 502.17 960.79 501.85 961.87 501.48 962.94 Z" />
</g>
<g id="#f79c44ff">
<path fill="#f79c44" opacity="1.00" d=" M 499.84 974.91 C 504.46 966.56 514.02 963.13 522.10 959.09 C 526.86 959.45 529.32 965.19 534.13 965.93 C 541.08 966.24 548.04 965.29 555.00 965.74 C 554.56 968.75 554.05 973.10 551.93 974.94 C 544.00 975.88 535.61 977.17 528.06 973.84 C 517.63 968.28 509.44 982.13 499.03 982.09 C 498.30 979.38 498.57 976.99 499.84 974.91 Z" />
</g>
<g id="#8b5a2dff">
<path fill="#8b5a2d" opacity="1.00" d=" M 473.72 974.36 C 480.84 976.59 485.10 968.94 491.82 967.82 C 488.25 976.47 485.36 985.40 481.70 994.01 C 475.90 989.73 469.11 980.63 473.72 974.36 Z" />
</g>
<g id="#d2853dff">
<path fill="#d2853d" opacity="1.00" d=" M 499.03 982.09 C 509.44 982.13 517.63 968.28 528.06 973.84 C 535.61 977.17 544.00 975.88 551.93 974.94 C 552.42 976.97 551.36 978.65 549.87 979.92 C 538.13 984.07 524.90 978.85 514.01 986.00 C 508.31 985.95 502.19 995.74 497.58 989.40 C 496.73 985.74 497.22 983.30 499.03 982.09 Z" />
</g>
<g id="#af7739ff">
<path fill="#af7739" opacity="1.00" d=" M 514.01 986.00 C 524.90 978.85 538.13 984.07 549.87 979.92 C 548.76 982.73 546.88 985.67 544.05 986.83 C 532.69 991.07 519.91 993.26 509.68 999.78 C 505.48 1000.25 501.21 1000.08 497.00 999.95 C 497.00 997.26 496.99 994.60 496.99 991.97 C 496.72 989.97 496.92 989.12 497.58 989.40 C 502.19 995.74 508.31 985.95 514.01 986.00 Z" />
</g>
<g id="#926b3aff">
<path fill="#926b3a" opacity="1.00" d=" M 509.68 999.78 C 519.91 993.26 532.69 991.07 544.05 986.83 C 535.98 996.48 521.86 999.58 509.68 999.78 Z" />
</g>
<g id="#5b391aff">
<path fill="#5b391a" opacity="1.00" d=" M 497.00 999.95 C 493.61 1001.02 494.96 992.47 496.99 991.97 C 496.99 994.60 497.00 997.26 497.00 999.95 Z" />
</g>
</svg>
